<?xml version="1.0" standalone="no"?>
<!DOCTYPE svg PUBLIC "-//W3C//DTD SVG 20010904//EN"
 "http://www.w3.org/TR/2001/REC-SVG-20010904/DTD/svg10.dtd">
<svg version="1.0" xmlns="http://www.w3.org/2000/svg"
 width="1280.000000pt" height="949.000000pt" viewBox="0 0 1280.000000 949.000000"
 preserveAspectRatio="xMidYMid meet">
<metadata>
Created by potrace 1.15, written by Peter Selinger 2001-2017
</metadata>
<g transform="translate(0.000000,949.000000) scale(0.100000,-0.100000)"
fill="#000000" stroke="none">
<path d="M10653 9448 c-25 -24 -59 -67 -76 -96 -33 -59 -59 -75 -121 -70 l-41
3 3 86 c3 60 0 89 -8 94 -19 12 -59 -35 -99 -116 -30 -62 -40 -75 -64 -77 -27
-3 -27 -3 -28 60 -1 78 -10 112 -31 116 -18 4 -76 -60 -82 -91 -3 -12 -8 -42
-13 -67 -10 -53 -12 -54 -208 -124 -333 -119 -360 -130 -450 -190 -49 -33
-119 -90 -153 -126 -35 -36 -71 -73 -80 -82 -10 -9 -64 -54 -122 -100 -133
-106 -354 -320 -385 -372 -34 -60 -65 -162 -65 -217 0 -56 23 -174 45 -225 14
-35 17 -36 51 -31 20 3 110 43 200 88 91 45 167 79 170 76 17 -17 -115 -134
-184 -164 -33 -14 -72 -65 -72 -95 0 -41 143 -108 232 -108 26 0 92 20 179 55
160 64 248 87 564 149 353 69 446 79 675 72 361 -11 876 -88 926 -137 27 -28
144 -235 150 -266 8 -42 -28 -220 -56 -278 -27 -55 -217 -239 -287 -277 -36
-20 -81 -32 -159 -44 -184 -26 -462 -107 -614 -176 -112 -52 -344 -123 -547
-168 -155 -35 -490 -189 -652 -300 -123 -84 -203 -154 -472 -414 -129 -123
-256 -241 -284 -262 -27 -21 -72 -57 -98 -81 -27 -23 -85 -68 -130 -99 -45
-31 -94 -68 -108 -81 -26 -24 -55 -42 -140 -88 -48 -25 -129 -108 -156 -160
-9 -16 -21 -33 -27 -37 -43 -29 -467 25 -510 64 -20 18 -98 48 -127 48 -65 0
-368 276 -499 453 -39 54 -116 148 -171 210 -55 62 -127 152 -161 200 -74 109
-161 203 -393 425 -225 216 -310 286 -555 453 -240 163 -279 186 -645 379 -55
29 -118 63 -140 75 -47 27 -198 95 -300 134 -399 157 -410 160 -581 195 -66
14 -179 43 -253 65 -270 82 -638 143 -1030 172 -215 15 -853 6 -1046 -15 -183
-21 -385 -50 -514 -75 -90 -18 -557 -144 -797 -216 -114 -34 -146 -79 -77
-106 56 -22 371 14 609 70 71 17 161 35 199 40 39 6 133 22 210 37 275 51 311
55 645 61 411 7 644 -9 909 -63 140 -28 555 -133 689 -174 250 -76 675 -242
898 -351 329 -160 751 -454 1066 -743 221 -201 524 -536 595 -656 97 -165 225
-449 300 -664 44 -129 174 -447 223 -551 128 -266 369 -627 585 -875 53 -61
56 -68 51 -105 -3 -22 -38 -112 -77 -200 -39 -88 -88 -200 -108 -249 -29 -69
-44 -92 -67 -104 -138 -72 -257 -225 -305 -392 -10 -34 -32 -64 -93 -126 -73
-73 -95 -88 -216 -148 -74 -37 -158 -86 -187 -109 -28 -23 -79 -64 -112 -91
-101 -81 -99 -75 -111 -482 -5 -192 -14 -369 -20 -394 -9 -37 -116 -356 -241
-720 -12 -36 -24 -71 -25 -77 -3 -10 -16 -8 -54 7 -103 41 -161 17 -210 -85
-23 -47 -25 -107 -6 -143 8 -15 18 -49 23 -77 l8 -50 47 3 c30 2 59 -3 80 -14
61 -31 208 -10 320 47 60 31 102 25 204 -28 l91 -47 43 19 c24 11 68 38 97 61
40 31 73 47 126 59 40 10 94 27 120 38 37 15 60 18 105 14 54 -6 59 -9 112
-67 30 -33 61 -60 68 -60 7 0 16 10 21 23 14 36 24 190 16 248 -6 47 -14 60
-55 99 -26 25 -54 51 -64 58 -10 8 -16 28 -16 56 0 24 -11 81 -25 127 -58 193
-103 499 -90 612 18 150 75 293 165 414 55 73 81 78 405 78 l260 0 51 27 c136
72 341 274 623 615 l183 222 51 -21 c225 -91 384 -105 712 -62 144 18 471 100
660 164 148 51 295 77 295 53 0 -13 -101 -174 -150 -239 -98 -130 -277 -279
-436 -363 -81 -43 -262 -180 -311 -235 -22 -25 -55 -73 -73 -107 -29 -56 -34
-74 -38 -159 -8 -169 4 -211 142 -484 128 -252 140 -286 167 -478 11 -77 11
-96 -4 -155 -28 -113 -30 -155 -13 -222 9 -35 16 -85 16 -112 0 -41 4 -51 26
-66 25 -16 28 -16 88 15 35 18 71 32 81 32 10 0 49 -29 86 -65 121 -117 199
-134 637 -142 l304 -6 116 28 c65 15 139 34 166 42 48 14 49 14 100 -18 130
-82 175 -97 168 -56 -3 20 10 22 40 6 18 -9 24 -8 35 7 35 48 6 115 -96 226
-71 76 -81 93 -59 100 7 3 9 14 4 32 -12 50 -147 90 -221 66 -20 -7 -84 -12
-142 -12 -80 1 -118 -4 -156 -18 l-49 -19 -112 54 c-104 50 -120 62 -249 185
-207 198 -253 272 -327 526 -77 265 -83 350 -27 449 32 56 71 79 226 129 167
55 278 83 536 136 110 23 262 57 339 76 76 19 175 42 219 50 108 21 212 54
392 126 212 84 230 93 281 140 78 72 117 164 148 346 13 73 36 322 36 386 0
13 5 16 16 12 29 -11 88 13 157 65 37 28 70 49 73 46 3 -3 -6 -35 -20 -71 -28
-69 -36 -150 -18 -168 8 -8 23 -8 54 1 63 19 88 38 109 86 11 25 41 62 73 89
36 30 65 67 83 103 26 55 27 64 30 228 2 171 9 222 53 385 11 41 25 116 30
165 12 118 25 165 120 445 95 282 111 350 145 596 27 201 28 203 113 342 78
127 82 159 44 345 -57 276 -101 390 -286 741 -41 77 -45 127 -22 231 7 33 25
112 39 175 39 175 60 382 54 535 -4 107 -13 159 -45 290 -22 88 -52 189 -65
225 -47 122 -118 285 -149 340 -81 143 -228 306 -404 446 -51 41 -105 89 -119
108 -14 19 -38 37 -52 41 -20 5 -140 81 -192 122 -3 2 8 16 22 31 55 57 22 81
-58 41 l-42 -21 -56 43 c-31 23 -57 48 -57 56 0 8 12 30 27 49 49 65 -13 72
-97 10 l-45 -32 -57 24 c-36 16 -58 31 -58 41 1 9 23 45 50 81 28 36 50 71 50
78 0 33 -59 0 -148 -83 l-62 -58 -45 18 c-25 9 -45 22 -45 29 0 7 11 40 25 74
27 66 31 92 15 92 -18 0 -81 -64 -101 -103 l-21 -39 -49 6 c-91 12 -95 18 -74
119 24 116 20 120 -52 55z m1342 -5406 l7 -78 -99 -212 c-54 -117 -114 -234
-133 -260 -39 -52 -97 -89 -123 -79 -16 6 -111 194 -123 242 -4 15 8 30 50 63
31 24 79 71 108 105 82 96 290 307 299 302 4 -3 10 -40 14 -83z m-169 -739
c-8 -16 -37 -50 -65 -78 -56 -54 -68 -53 -77 7 -6 35 -6 35 57 66 35 17 72 31
82 31 16 1 16 -1 3 -26z"/>
</g>
</svg>
