<?xml version="1.0" standalone="no"?>
<!DOCTYPE svg PUBLIC "-//W3C//DTD SVG 20010904//EN"
 "http://www.w3.org/TR/2001/REC-SVG-20010904/DTD/svg10.dtd">
<svg version="1.0" xmlns="http://www.w3.org/2000/svg"
 width="640.000000pt" height="1280.000000pt" viewBox="0 0 640.000000 1280.000000"
 preserveAspectRatio="xMidYMid meet">
<metadata>
Created by potrace 1.15, written by Peter Selinger 2001-2017
</metadata>
<g transform="translate(0.000000,1280.000000) scale(0.100000,-0.100000)"
fill="#000000" stroke="none">
<path d="M1685 12786 c-22 -7 -76 -31 -120 -53 -44 -23 -98 -44 -120 -47 -222
-37 -1097 -274 -1180 -319 -36 -20 -90 -83 -172 -201 l-27 -38 20 -17 c12 -9
28 -30 37 -46 l15 -30 11 28 c12 32 36 35 51 7 6 -11 15 -20 21 -20 6 0 8 4 5
9 -10 16 5 41 25 41 10 0 25 -12 33 -27 l14 -28 11 28 c13 34 38 35 53 2 14
-31 26 -32 30 -2 4 32 41 34 58 2 17 -31 28 -32 32 -2 2 16 11 23 33 25 25 2
32 -2 44 -30 l15 -33 13 33 c16 39 45 42 61 7 14 -31 30 -32 34 -2 3 19 10 22
54 25 48 3 52 1 58 -23 8 -32 20 -32 34 0 16 35 55 34 72 -2 l13 -28 11 28 c5
15 15 27 22 27 7 0 18 2 26 5 8 3 18 -7 26 -27 l12 -33 20 33 c24 39 52 41 75
5 l18 -26 14 26 c18 34 76 39 93 7 6 -11 15 -20 19 -20 5 0 11 9 14 20 4 15
14 20 40 20 20 0 39 -4 42 -10 3 -5 0 -10 -7 -10 -7 0 -51 -23 -98 -51 -147
-88 -193 -107 -306 -130 -110 -21 -184 -52 -184 -76 0 -7 11 -13 26 -13 41 0
23 -24 -26 -33 -39 -8 -46 -6 -61 12 -19 23 -29 18 -29 -15 0 -35 -49 -40 -77
-8 l-23 25 0 -35 c0 -33 -2 -36 -29 -36 -18 0 -34 8 -44 23 -16 22 -16 22 -16
-10 -1 -28 -5 -33 -25 -33 -13 0 -29 7 -37 16 -12 14 -14 14 -21 -5 -10 -28
-35 -27 -44 2 -7 22 -7 22 -19 -6 -12 -29 -25 -24 -37 13 -4 11 -9 7 -18 -12
-10 -21 -20 -28 -42 -28 -37 0 -47 -25 -21 -51 28 -29 123 -48 234 -49 74 0
150 10 330 45 304 59 491 91 661 112 126 15 139 15 155 1 10 -9 64 -39 121
-66 142 -70 157 -83 178 -145 20 -63 52 -127 106 -215 23 -37 54 -103 70 -147
41 -114 108 -249 167 -335 l50 -75 11 -175 c29 -462 112 -904 286 -1520 55
-194 228 -762 285 -937 l30 -92 -31 -46 c-76 -110 -155 -322 -195 -519 -40
-202 -48 -281 -51 -550 l-3 -260 -31 -67 c-23 -51 -31 -81 -31 -126 1 -154 -5
-199 -31 -234 -34 -45 -57 -92 -112 -229 -31 -76 -71 -151 -120 -225 -211
-311 -241 -493 -200 -1215 18 -325 14 -655 -10 -760 -41 -178 -107 -333 -179
-417 -70 -81 -92 -134 -93 -224 0 -62 -5 -83 -25 -115 -31 -51 -39 -162 -15
-234 13 -38 14 -59 6 -92 -5 -24 -10 -84 -10 -134 0 -188 70 -315 223 -402 50
-29 52 -28 27 7 -11 17 -35 60 -52 97 -40 86 -50 199 -23 269 9 25 20 45 25
45 19 0 69 53 89 94 24 52 41 180 41 313 0 91 5 123 20 123 10 0 23 -201 21
-315 -2 -73 2 -97 19 -130 40 -77 22 -235 -36 -310 l-34 -45 52 0 c95 0 166
51 214 154 14 31 25 45 28 35 20 -54 36 -146 42 -234 l7 -103 34 40 c44 53 59
84 78 155 19 71 20 243 2 328 -10 48 -10 69 0 109 15 57 4 148 -24 212 -10 24
-20 81 -24 144 -5 81 -15 132 -43 220 -36 110 -38 123 -43 295 -9 292 12 544
97 1150 27 193 54 402 61 465 l12 115 99 94 100 94 -9 -39 c-4 -21 -7 -140 -5
-264 2 -238 16 -353 53 -463 12 -34 30 -109 40 -167 41 -237 105 -402 327
-850 l167 -335 3 -118 c4 -143 -9 -252 -44 -361 -35 -110 -40 -182 -19 -285
25 -125 6 -285 -100 -816 -35 -176 -67 -344 -71 -373 -4 -29 -16 -66 -28 -82
-11 -15 -49 -65 -83 -110 -35 -45 -79 -111 -99 -146 -28 -50 -46 -70 -78 -86
-51 -26 -155 -98 -180 -127 -14 -15 -31 -21 -65 -21 -54 0 -181 -26 -194 -39
-5 -5 -24 -7 -42 -4 -74 12 -189 -33 -252 -99 -28 -29 -71 -108 -59 -108 3 0
21 10 42 22 36 21 37 21 108 4 54 -14 74 -24 82 -40 10 -21 6 -25 -43 -51
-103 -53 -185 -179 -199 -303 -7 -68 5 -83 26 -32 17 42 79 75 174 94 76 16
80 15 100 -3 36 -32 63 -41 123 -41 56 1 69 5 178 63 17 9 68 23 115 33 90 17
128 33 149 58 8 9 25 16 40 16 74 0 192 94 232 184 11 26 29 47 46 55 39 18
103 68 144 113 l36 40 49 -37 c76 -58 128 -77 225 -83 84 -4 87 -3 155 33 38
20 84 48 102 62 74 56 139 201 130 287 -9 77 -58 149 -58 85 0 -52 -75 -150
-140 -181 -32 -15 -35 -15 -62 5 -22 16 -41 20 -94 19 -36 -1 -74 3 -85 9 -22
11 -49 66 -49 98 0 18 3 19 29 10 26 -9 123 9 196 37 95 36 150 158 114 251
l-11 28 -12 -30 c-7 -16 -22 -38 -32 -47 -19 -17 -94 -52 -98 -46 -1 2 -8 23
-15 47 -7 24 -24 53 -38 65 -76 62 -90 81 -98 132 -13 99 29 483 81 722 13 64
50 209 81 322 77 282 93 366 93 488 0 100 -2 108 -46 220 l-47 117 -8 195
c-14 308 -36 549 -66 695 -16 80 -14 234 3 402 l7 62 68 -35 c164 -82 288
-114 444 -114 182 1 330 38 518 131 l99 49 -4 -431 -3 -431 -30 -21 c-16 -12
-55 -45 -85 -73 -30 -28 -104 -82 -165 -118 -131 -80 -172 -118 -233 -211 -25
-38 -67 -93 -94 -122 -42 -46 -48 -57 -48 -96 0 -33 -9 -59 -35 -102 -58 -97
-59 -209 -4 -322 33 -68 48 -80 41 -34 -2 16 2 55 8 87 10 46 21 67 50 96 57
57 67 52 67 -38 1 -65 5 -85 32 -136 17 -34 31 -66 31 -73 0 -24 42 -65 79
-76 31 -9 48 -8 105 10 37 11 73 24 79 28 7 4 51 8 98 8 78 0 92 3 155 35 111
57 164 149 164 284 0 40 9 89 27 141 l27 80 8 -55 c9 -61 4 -153 -18 -313 -23
-173 -19 -241 23 -411 l38 -151 -2 -310 c-1 -170 -5 -346 -8 -390 l-6 -80 -56
0 c-51 0 -56 2 -71 30 -8 17 -15 49 -15 73 0 23 -5 42 -11 42 -5 0 -31 -22
-56 -48 -57 -59 -75 -114 -68 -212 5 -72 5 -71 87 -184 33 -46 71 -68 117 -68
19 0 36 -3 38 -6 3 -5 -17 -151 -24 -178 0 0 -14 1 -31 4 -17 2 -42 -1 -55 -9
-22 -11 -27 -10 -59 21 -46 45 -69 106 -63 170 3 27 2 50 -2 50 -14 0 -60 -57
-75 -93 -21 -50 -21 -202 0 -282 30 -111 82 -175 162 -197 20 -5 48 -19 62
-29 63 -46 155 -32 220 32 23 23 41 48 41 55 0 8 4 14 9 14 11 0 21 -51 21
-114 0 -55 30 -133 54 -142 7 -3 19 -25 25 -48 6 -27 28 -62 54 -92 24 -27 54
-71 66 -99 36 -81 91 -125 156 -125 44 0 225 -203 225 -252 0 -10 4 -18 10
-18 26 0 32 194 9 310 -7 36 -13 98 -14 138 0 60 2 72 14 67 44 -17 106 -17
162 0 49 15 66 16 97 7 50 -15 103 -57 138 -109 16 -24 33 -43 38 -43 11 0 -2
122 -20 189 -44 156 -148 283 -333 406 -192 127 -234 180 -314 395 -133 356
-184 804 -130 1145 39 245 45 332 48 690 2 199 8 369 14 395 5 25 26 103 45
174 74 269 116 553 116 791 0 85 6 164 14 200 26 109 39 302 31 466 -14 284
-10 401 19 574 37 217 52 590 37 905 -12 240 -27 356 -64 486 l-24 81 113 178
c124 194 176 310 219 485 39 165 48 251 42 405 -9 215 -31 345 -132 765 -117
487 -139 625 -138 870 0 203 19 320 109 683 119 479 148 681 126 878 -25 226
-100 429 -137 369 -3 -6 1 -58 11 -118 20 -130 14 -285 -17 -429 -37 -173 -81
-290 -221 -592 -162 -350 -205 -465 -233 -625 -17 -100 -19 -288 -5 -451 36
-423 33 -620 -11 -793 -33 -130 -114 -227 -227 -271 -45 -18 -74 -21 -208 -21
l-155 0 -147 98 c-188 126 -252 164 -354 211 -189 87 -263 100 -488 89 -102
-5 -149 -11 -193 -28 -32 -12 -60 -20 -62 -18 -22 23 -196 318 -256 433 -95
183 -152 317 -213 501 -149 453 -181 763 -140 1356 24 335 22 602 -5 752 -25
138 -78 306 -123 385 -108 191 -346 313 -693 355 -66 8 -156 18 -200 21 -44 4
-111 16 -150 26 -81 21 -134 23 -190 5z m3046 -9204 c-5 -15 -24 -64 -43 -107
-20 -44 -39 -95 -43 -113 -10 -46 -25 -28 -34 39 l-7 54 -41 -42 c-49 -50 -76
-123 -71 -193 1 -28 0 -50 -4 -50 -3 0 -13 -3 -21 -6 -26 -10 -51 75 -44 149
8 85 12 92 59 106 27 8 59 31 92 66 52 54 141 125 156 125 5 0 5 -13 1 -28z"/>
</g>
</svg>
