<?xml version="1.0" standalone="no"?>
<!DOCTYPE svg PUBLIC "-//W3C//DTD SVG 20010904//EN"
 "http://www.w3.org/TR/2001/REC-SVG-20010904/DTD/svg10.dtd">
<svg version="1.0" xmlns="http://www.w3.org/2000/svg"
 width="1280.000000pt" height="640.000000pt" viewBox="0 0 1280.000000 640.000000"
 preserveAspectRatio="xMidYMid meet">
<metadata>
Created by potrace 1.15, written by Peter Selinger 2001-2017
</metadata>
<g transform="translate(0.000000,640.000000) scale(0.100000,-0.100000)"
fill="#000000" stroke="none">
<path d="M952 6099 c-442 -37 -792 -276 -906 -620 -78 -234 -49 -553 73 -804
103 -211 254 -370 476 -500 435 -255 1051 -358 1940 -325 891 32 1245 23 1630
-45 315 -55 375 -89 673 -378 168 -164 197 -188 277 -229 86 -44 221 -92 332
-118 l52 -12 6 -56 c3 -32 10 -76 14 -99 9 -48 2 -53 -80 -53 -108 0 -354 -89
-585 -211 -133 -70 -200 -91 -324 -104 -97 -10 -154 -28 -307 -101 -134 -64
-233 -105 -418 -175 -115 -43 -154 -80 -178 -168 -12 -43 -37 -91 -74 -144
-74 -105 -102 -175 -103 -253 0 -51 5 -69 36 -120 19 -32 51 -75 69 -94 19
-20 42 -56 50 -81 9 -26 36 -70 60 -98 25 -29 45 -59 45 -66 0 -26 52 -75 89
-85 32 -8 43 -19 68 -66 30 -56 31 -57 44 -33 20 38 32 99 32 169 1 108 -15
160 -75 254 -104 160 -103 221 4 368 76 106 110 134 181 150 23 5 81 31 129
59 119 68 182 88 323 99 66 6 181 18 255 27 75 8 231 17 350 18 224 2 323 16
465 65 41 14 62 17 81 10 34 -13 85 -13 142 2 37 9 61 26 110 75 45 44 76 66
105 74 66 18 130 54 200 114 l66 55 6 -57 c13 -128 30 -197 98 -398 l70 -210
0 -115 c1 -63 -3 -163 -7 -222 -11 -130 -3 -168 65 -303 83 -168 114 -339 77
-430 -14 -36 -14 -43 0 -85 17 -49 21 -125 8 -152 -12 -26 24 -23 59 4 l28 22
52 -56 c37 -39 61 -77 79 -126 39 -101 80 -132 176 -132 27 0 95 -12 150 -26
l102 -26 64 22 c47 16 93 22 167 24 111 2 151 16 181 60 14 22 24 26 62 26 25
0 54 -5 65 -10 33 -18 23 18 -15 54 -101 93 -117 104 -159 111 -23 4 -61 16
-85 27 -40 19 -49 19 -142 8 -55 -6 -116 -8 -137 -4 -102 18 -218 105 -266
200 -49 97 -147 431 -147 504 0 19 5 90 12 157 11 116 11 130 -12 245 -34 174
-31 209 28 353 111 270 142 545 98 851 -11 71 -17 137 -14 145 5 13 19 14 109
3 57 -8 132 -13 167 -14 44 0 89 -9 145 -29 124 -43 204 -54 362 -49 124 4
159 10 298 46 87 23 162 42 168 42 5 0 9 -15 9 -34 0 -44 25 -172 41 -211 6
-16 15 -79 19 -138 9 -125 34 -187 90 -224 41 -29 93 -29 217 -4 113 23 197
63 288 136 38 31 81 58 95 61 101 23 193 51 240 74 47 23 64 27 115 22 52 -4
65 -10 102 -43 24 -22 49 -39 57 -39 19 0 36 -31 36 -65 0 -21 4 -26 16 -21 9
3 17 6 20 6 2 0 11 14 20 31 19 37 12 127 -13 169 -18 31 -100 88 -150 105
l-38 13 38 7 c31 6 42 4 60 -13 12 -12 48 -33 80 -47 31 -15 57 -33 57 -40 0
-8 12 -22 26 -32 50 -34 64 -53 64 -83 0 -39 15 -38 35 1 11 20 17 61 18 123
l2 93 23 -18 c13 -10 36 -20 51 -24 28 -6 35 -16 55 -79 5 -15 9 -16 22 -5 29
24 44 68 44 129 0 68 -11 85 -82 121 -24 12 -91 52 -149 90 -197 126 -263 152
-447 169 -62 7 -176 21 -252 33 -138 22 -138 22 -121 43 9 11 29 24 44 28 16
4 36 19 44 35 9 15 30 34 46 41 45 20 98 78 167 182 74 110 131 172 183 199
100 52 693 179 974 209 106 12 115 11 185 -10 66 -20 78 -21 126 -9 54 13 60
12 198 -25 46 -12 72 -14 102 -7 35 7 44 6 59 -11 10 -11 41 -32 68 -46 42
-22 65 -26 145 -27 102 -2 115 -5 174 -44 35 -23 50 -26 131 -26 90 -1 92 -1
152 -41 33 -22 105 -60 159 -84 125 -55 153 -73 239 -154 114 -109 210 -153
278 -127 32 12 35 31 7 56 -11 10 -20 24 -20 32 0 7 -7 13 -15 13 -8 0 -15 5
-15 11 0 5 -4 7 -10 4 -5 -3 -10 1 -10 10 0 9 -5 13 -11 10 -6 -4 -13 2 -16
13 -3 13 -11 18 -19 15 -8 -3 -14 1 -14 11 0 9 -7 16 -15 16 -9 0 -12 6 -8 17
4 11 3 14 -6 9 -17 -11 -41 12 -34 31 4 11 3 14 -6 9 -14 -9 -43 12 -35 25 3
5 -2 9 -12 9 -12 0 -15 6 -11 21 4 15 2 19 -8 15 -19 -7 -29 10 -13 20 9 6 5
10 -12 14 -15 4 -24 13 -24 23 1 9 -4 17 -12 17 -20 0 -27 19 -14 35 10 12 9
15 -8 15 -31 0 -45 31 -24 54 16 18 16 19 -10 14 -32 -6 -42 10 -20 35 14 16
13 17 -10 17 -14 0 -31 6 -37 14 -10 11 2 25 59 69 60 47 75 54 98 48 18 -5
28 -15 30 -30 3 -21 5 -22 22 -6 21 19 40 13 40 -13 0 -12 3 -13 12 -4 18 18
28 15 28 -10 0 -20 1 -21 20 -3 19 18 20 17 20 -3 0 -24 10 -28 27 -11 13 13
36 2 27 -12 -3 -6 5 -7 21 -3 21 5 27 3 32 -15 4 -15 9 -19 17 -12 15 13 56 3
56 -14 0 -8 9 -10 25 -7 18 3 25 0 25 -12 0 -9 5 -16 10 -16 6 0 10 5 10 10 0
18 40 -9 41 -28 0 -10 3 -12 6 -4 7 17 33 15 33 -3 0 -11 8 -13 30 -8 26 5 30
3 30 -16 0 -11 5 -21 10 -21 6 0 10 5 10 10 0 6 9 10 20 10 12 0 20 -7 20 -16
0 -12 4 -14 13 -7 6 5 23 10 37 11 30 1 60 35 60 68 0 13 -12 37 -27 53 -62
67 -343 318 -413 369 -41 30 -120 99 -175 152 -55 53 -116 106 -135 118 -67
40 -192 83 -308 107 -115 23 -124 23 -667 21 -677 -4 -924 -22 -1560 -117
-351 -52 -415 -59 -594 -60 -286 -2 -414 26 -790 172 -112 44 -242 91 -290
105 -122 37 -292 42 -576 18 -173 -14 -304 -18 -615 -16 -556 3 -985 -21
-1785 -97 -55 -6 -176 -17 -270 -26 -531 -49 -1206 -132 -1835 -226 -184 -27
-373 -56 -420 -64 -509 -87 -828 -104 -1126 -60 -603 89 -914 378 -891 829 19
376 244 614 665 706 139 30 302 43 472 36 l155 -5 -50 20 c-81 33 -241 68
-365 79 -63 5 -122 9 -130 9 -8 -1 -61 -6 -118 -10z m8168 -3078 l25 -7 -25
-8 c-14 -5 -62 -31 -107 -58 -79 -47 -181 -81 -314 -103 -40 -7 -42 -6 -36 16
4 13 12 49 19 80 l11 56 91 6 c50 4 105 11 121 16 35 11 179 12 215 2z"/>
</g>
</svg>
