<?xml version="1.0" standalone="no"?>
<!DOCTYPE svg PUBLIC "-//W3C//DTD SVG 20010904//EN"
 "http://www.w3.org/TR/2001/REC-SVG-20010904/DTD/svg10.dtd">
<svg version="1.0" xmlns="http://www.w3.org/2000/svg"
 width="1165.000000pt" height="1280.000000pt" viewBox="0 0 1165.000000 1280.000000"
 preserveAspectRatio="xMidYMid meet">
<metadata>
Created by potrace 1.15, written by Peter Selinger 2001-2017
</metadata>
<g transform="translate(0.000000,1280.000000) scale(0.100000,-0.100000)"
fill="#000000" stroke="none">
<path d="M8348 12786 c-21 -8 -49 -21 -64 -30 -14 -10 -87 -32 -162 -51 -75
-18 -177 -47 -225 -64 -49 -16 -94 -27 -102 -25 -19 7 -126 -21 -177 -47 -24
-11 -57 -36 -74 -53 -16 -18 -37 -37 -46 -42 -33 -19 -68 -86 -68 -130 0 -24
-5 -63 -12 -88 -10 -38 -9 -51 12 -107 26 -72 58 -112 110 -139 57 -29 101
-34 147 -15 37 15 46 15 106 1 37 -9 137 -48 224 -87 229 -104 325 -115 462
-53 l62 27 177 -6 c354 -13 630 -80 917 -224 188 -94 334 -201 501 -367 416
-415 657 -998 705 -1706 22 -331 -11 -660 -102 -1025 -275 -1098 -693 -2047
-1205 -2736 -78 -104 -193 -247 -246 -305 l-29 -31 -62 18 c-150 42 -258 92
-449 205 -269 159 -524 265 -803 335 -829 205 -1709 39 -2375 -450 -173 -127
-372 -319 -484 -467 -21 -28 -57 -54 -116 -85 -441 -229 -863 -559 -1673
-1308 -182 -168 -411 -379 -509 -469 l-178 -163 -21 48 c-371 865 -454 1574
-252 2158 87 251 189 434 394 706 131 174 197 287 244 417 71 197 79 383 24
549 -42 128 -73 107 -84 -59 -19 -292 -129 -501 -445 -848 -216 -236 -310
-370 -421 -595 -241 -492 -312 -1088 -218 -1835 36 -293 95 -584 203 -1003
l55 -219 -148 -222 c-420 -626 -685 -914 -981 -1065 -159 -81 -244 -104 -435
-116 -178 -11 -287 -56 -384 -161 -100 -106 -148 -241 -138 -389 16 -245 162
-412 397 -457 70 -13 455 -3 645 17 743 79 1179 322 1478 824 31 52 87 128
125 170 37 42 151 177 252 301 398 488 580 668 830 823 154 95 257 128 444
142 49 3 106 12 126 19 l37 13 8 -116 c11 -151 11 -171 -3 -266 -15 -98 -1
-224 32 -307 23 -55 23 -59 9 -140 -11 -62 -14 -131 -10 -268 6 -198 16 -267
73 -504 35 -144 36 -153 25 -225 -19 -129 -15 -180 19 -234 29 -47 30 -48 14
-90 -31 -85 -37 -107 -30 -114 6 -6 241 -8 711 -6 77 1 161 1 187 1 83 -1 99
35 50 113 -16 24 -40 50 -54 57 -13 8 -33 28 -43 45 -10 17 -36 51 -58 74
l-38 42 16 31 c29 57 29 125 0 265 l-26 130 12 195 c14 224 7 399 -18 485 -10
35 -17 85 -15 120 1 33 -2 81 -8 107 -9 45 -8 48 22 78 30 31 31 32 25 107 -5
70 -4 79 18 108 31 39 55 107 55 152 l0 34 83 -67 c92 -76 185 -138 267 -179
30 -15 57 -29 59 -31 1 -1 -5 -33 -14 -71 -20 -77 -16 -153 10 -203 16 -30 16
-37 -1 -99 -22 -86 -30 -337 -15 -456 7 -48 26 -140 42 -204 l30 -116 -23 -70
c-32 -96 -32 -254 0 -334 17 -43 19 -58 10 -75 -6 -12 -15 -52 -19 -91 -4 -38
-11 -84 -14 -102 -10 -43 19 -58 110 -54 39 1 86 1 105 0 50 -2 152 -2 415 0
127 0 256 -2 287 -5 82 -9 118 7 118 53 0 50 -24 100 -74 152 -73 75 -132 145
-144 168 -10 17 -7 30 11 70 18 39 22 66 22 143 0 82 -4 104 -29 160 -27 62
-28 70 -23 170 3 58 18 168 33 245 23 113 28 168 28 290 1 83 -3 166 -7 185
l-8 35 163 0 c90 0 204 3 254 7 l92 8 6 -43 c4 -23 18 -80 32 -126 25 -81 25
-84 8 -125 -25 -62 -53 -164 -65 -236 -15 -94 -12 -264 6 -350 23 -107 20
-180 -16 -316 -23 -91 -29 -130 -24 -164 11 -73 7 -101 -20 -139 -48 -70 -46
-140 6 -167 26 -13 60 -15 217 -11 103 2 225 7 272 10 47 4 96 7 110 7 14 0
87 -1 163 -2 170 -2 184 5 137 70 -16 23 -36 42 -43 42 -6 0 -29 28 -51 61
l-38 60 21 67 c18 56 22 87 19 182 l-2 115 37 72 c43 85 78 199 102 338 22
120 25 363 6 448 -11 51 -10 63 6 110 14 41 18 81 18 193 l-1 141 95 39 c52
21 97 40 100 41 3 2 7 -66 7 -150 1 -120 6 -169 23 -231 25 -96 26 -148 4
-290 -15 -103 -15 -115 1 -191 16 -77 16 -88 0 -184 -17 -102 -17 -103 6 -191
25 -100 24 -111 -19 -230 -35 -96 -41 -188 -17 -278 12 -46 11 -57 -5 -104
-20 -60 -16 -95 14 -121 18 -16 37 -18 137 -16 74 1 126 -3 145 -10 20 -9 54
-11 100 -7 39 3 138 7 220 7 87 1 171 6 200 14 50 12 50 13 49 52 -1 42 -42
106 -106 164 -28 25 -28 26 -13 62 27 65 29 170 6 320 -33 215 -28 270 44 547
63 244 68 392 17 498 -31 64 -22 132 32 248 26 56 60 154 76 218 32 124 56
323 47 387 -5 37 -3 40 58 92 120 103 205 213 278 364 31 64 58 102 99 141 63
60 109 145 129 237 9 47 21 69 54 105 108 115 215 342 215 454 0 19 36 93 99
205 408 727 729 1416 971 2086 474 1314 685 2664 564 3610 -71 556 -233 1025
-493 1430 -165 257 -409 514 -646 681 -352 248 -730 387 -1193 440 -75 8 -171
24 -212 35 -108 29 -223 93 -292 162 -54 55 -85 73 -190 111 -25 9 -54 28 -63
42 -32 49 -106 65 -177 40z"/>
</g>
</svg>
