<svg version="1.1" id="Layer_1" xmlns="http://www.w3.org/2000/svg" xmlns:xlink="http://www.w3.org/1999/xlink" x="0px" y="0px"
	  viewBox="0 0 792 612" enable-background="new 0 0 792 612" xml:space="preserve">
<path fill="currentColor" fill-rule="evenodd" clip-rule="evenodd" stroke="currentColor" stroke-width="2.9999" stroke-linecap="round" stroke-linejoin="round" stroke-miterlimit="22.9256" d="
	M176.197,306.671c0.339-1.358-5.2-4.71-4.92-5.981c0.059-0.267,45.462-5.454,35.744-16.274c-2.371-2.641-8.622-4.042-8.352-5.443
	c0.27-1.401,7.059-2.803,14.064-4.257c7.006-1.455,14.227-2.964,18.43-5.065c4.204-2.102,5.39-4.796,2.641-6.79
	c-2.749-1.995-9.431-3.288-7.275-4.851s13.149-3.395,21.609-6.089c8.461-2.695,14.389-6.251,16.76-9.269
	c2.371-3.018,1.185-5.497-2.048-7.114s-8.514-2.371-4.527-4.041c3.988-1.671,17.245-4.258,25.328-7.06
	c8.083-2.803,10.993-5.82,14.119-10.023c3.126-4.204,6.467-9.593,3.719-12.826c-2.749-3.234-11.586-4.312-7.383-5.659
	s21.448-2.964,34.381-4.742c12.934-1.779,21.556-3.719,27.591-6.682c6.036-2.964,9.485-6.953,9.161-10.832
	c-0.323-3.88-4.418-7.652-4.365-8.946c0.054-1.293,4.257-0.107,14.227,2.533c9.97,2.64,25.705,6.735,35.352,7.167
	c9.646,0.431,13.203-2.802,13.041-6.682c-0.161-3.88-4.041-8.407-2.641-9.054c1.401-0.646,8.084,2.586,16.221,6.413
	c8.138,3.826,17.729,8.245,24.843,10.132c7.113,1.886,11.748,1.239,12.88-1.348c1.131-2.586-1.239-7.114,3.61-4.742
	s16.921,11.64,25.813,15.951c8.893,4.311,14.604,3.665,16.76,1.186c2.156-2.479,0.755-6.79,2.479-5.927
	c1.726,0.862,6.575,6.897,11.264,11.371c4.688,4.473,9.216,7.382,13.688,8.999c4.474,1.617,8.893,1.94,11.263,0.27
	c2.372-1.67,2.695-5.335,5.713-2.802c3.018,2.532,8.729,11.261,13.256,17.081c4.527,5.819,7.868,8.729,11.587,10.454
	c3.718,1.724,7.813,2.263,10.239,0.701c2.425-1.563,3.179-5.228,5.28-3.611c2.102,1.617,5.551,8.515,9.377,14.658
	s8.03,11.533,10.832,14.173c2.802,2.64,4.203,2.532,4.903,1.186c0.701-1.348,0.701-3.935,1.94-2.479
	c1.239,1.455,3.719,6.952,6.574,10.994c2.856,4.041,6.09,6.628,9.646,8.568c13.583,7.41,5.063,0.565,4.256-9.207
	c-0.484-5.875,0.377-12.233,2.048-18.969c1.671-6.737,4.149-13.85,5.551-12.556c1.401,1.293,1.725,10.993,4.473,19.292
	s7.921,15.197,12.987,19.239c5.065,4.041,10.023,5.227,12.825,6.628c2.803,1.401,3.449,3.017,7.114,6.143
	c3.664,3.125,10.346,7.76,17.405,11.802c7.06,4.041,14.496,7.49,19.885,9.7c5.39,2.209,8.73,3.179,11.694,7.707
	c2.964,4.526,5.551,12.609,7.275,17.46c1.725,4.85,2.587,6.466,1.455,7.976c-1.131,1.509-4.258,2.91-7.275,5.012
	s-5.927,4.903-9.538,6.467c-3.611,1.562-7.922,1.886-12.557,1.509c-4.634-0.378-9.592-1.455-14.766-0.971
	c-5.173,0.484-10.562,2.533-16.112,3.826s-11.263,1.832-16.705,0.506c-18.651-4.547-12.662-8.344-34.003-4.18
	c-4.419,0.861-9.592,0.861-15.844-0.539c-6.251-1.401-13.58-4.204-19.723-4.312c-6.144-0.108-11.102,2.479-14.228,7.329
	c-3.125,4.85-4.418,11.963-4.311,16.598c0.107,4.634,1.616,6.79,4.634,10.563c3.018,3.771,7.545,9.161,12.395,16.705
	c4.851,7.545,10.023,17.244,15.305,24.143c5.281,6.897,10.671,10.993,16.383,14.334c5.712,3.342,11.747,5.929,15.089,8.946
	c3.341,3.018,3.987,6.467,2.263,8.515c-1.725,2.047-5.819,2.694-13.256,3.449c-7.438,0.754-18.215,1.616-26.837,1.293
	c-8.622-0.324-15.09-1.833-17.892-4.527s-1.94-6.574-2.802-9.808c-0.862-3.233-3.45-5.82-10.24-12.933
	c-6.789-7.114-17.782-18.754-23.818-27.269c-6.035-8.515-7.112-13.903-8.729-20.047c-1.616-6.144-3.772-13.041-6.251-14.873
	c-2.479-1.832-5.281,1.401-8.73,6.251s-7.544,11.317-12.718,17.137c-5.174,5.82-11.424,10.993-15.089,16.813
	c-3.664,5.819-4.742,12.287-2.802,17.999c1.939,5.712,6.897,10.67,10.777,14.119s6.683,5.389,7.222,7.652
	c0.538,2.263-1.186,4.85-7.545,6.035s-17.353,0.97-23.28,0.646s-6.79-0.755-7.652-3.125c-0.862-2.371-1.725-6.683-4.096-10.131
	c-2.37-3.449-6.251-6.036-7.437-12.18s0.324-15.844,2.587-22.849c2.264-7.006,5.281-11.317,8.083-17.029
	c2.803-5.713,5.39-12.825,4.958-16.383c-0.432-3.556-3.881-3.556-13.041-4.957c-9.162-1.401-52.488-4.203-60.356-4.635
	c-7.867-0.43-8.729,1.51-7.544,5.497c1.186,3.988,4.419,10.023,6.035,16.706c1.617,6.682,1.616,14.011,1.509,19.723
	c-0.107,5.707,10.244,26.41,15.305,30.933c5.065,4.526,9.808,7.329,12.179,10.023s2.371,5.281-0.646,7.113s-9.053,2.91-16.489,3.018
	c-7.438,0.108-16.275-0.755-21.233-2.371c-4.957-1.616-6.034-3.988-7.651-9.054s-3.772-12.825-7.33-20.369
	c-3.557-7.545-8.514-14.874-14.011-22.526c-5.497-7.652-11.532-15.628-15.628-21.447c-4.096-5.82-6.251-9.484-9.269-9.054
	c-3.018,0.431-6.898,4.958-13.041,9.916c-6.144,4.957-14.551,10.347-23.065,14.98c-8.514,4.634-17.137,8.515-22.095,13.796
	c-4.958,5.281-6.251,11.963-5.389,17.244c0.862,5.281,3.88,9.162,6.359,12.287c2.479,3.126,4.419,5.497,5.497,7.544
	c1.078,2.048,1.292,3.773,0,5.604c-1.293,1.832-4.095,3.773-10.777,3.881s-17.245-1.617-23.496-3.772s-8.191-4.742-10.454-8.73
	c-2.263-3.987-4.851-9.376-5.173-14.765c-0.324-5.389,1.617-10.779,2.586-15.736s0.97-9.484,4.634-14.55
	c3.665-5.065,10.994-10.671,16.275-16.706s8.515-12.503,11.962-19.185c3.448-6.683-1.681-11.661-5.389-10.778
	c-61.68,14.698-164.919,12.056-203.341-48.008c-12.509-19.554-7.576-31.56-29.036-54.274c-5.487-5.808-10.23-13.676-12.009-22.083
	c-1.778-8.406-0.592-17.353,2.695-26.244c3.287-8.892,8.676-17.729,14.011-20.423c5.335-2.695,10.617,0.754,16.06,4.634
	c5.442,3.88,11.046,8.192,15.088,13.096c4.041,4.903,6.52,10.4,7.167,15.95s-0.539,11.153-3.569,17.753
	c-3.031,6.6-7.905,14.198-9.503,20.25c-1.599,6.053,0.078,10.561,2.192,11.181s4.665-2.647,5.621-0.557
	c0.956,2.089,0.317,9.537,1.938,15.946c1.621,6.409,5.501,11.779,8.354,12.528c2.852,0.749,4.676-3.123,6.126-2.688
	s2.528,5.177,5.813,9.676c3.284,4.498,8.774,8.754,13.57,10.963c4.796,2.21,8.898,2.373,10.68,0.838
	c1.781-1.535,1.243-4.768,2.428-4.768s4.095,3.232,7.347,5.873c3.251,2.641,6.843,4.688,10.692,5.541
	C160.906,316.162,174.288,314.313,176.197,306.671z"/>
</svg>
