<?xml version="1.0" encoding="UTF-8"?>
<svg viewBox="0 0 287.5 275" xmlns="http://www.w3.org/2000/svg" xmlns:xlink="http://www.w3.org/1999/xlink">
 <path d="m150.34 261.38c-2.3929-0.80101-5.0394-2.1871-6.3876-4.2584-3.1675-4.8664-4.773-11.036-7.1594-16.555s-7.2964-10.919-7.1594-16.555c0.2002-8.2395 9.3725-23.552 8.1708-25.071-1.0163-1.2846-9.7368 11.245-14.825 16.661-5.0792 5.4072-9.8735 11.261-15.676 15.809-6.9192 5.4234-14.551 10.294-22.49 14.106-10.461 5.0238-21.533 9.5333-32.71 12.403-6.655 1.7084-14.12 2.6069-20.786 1.3308-9.4621-1.8112-25.708-8.3396-27.6-10.593-1.1774-1.402 12.545 1.0342 18.391-0.37262 6.9828-1.6805 13.946-5.004 20.094-8.8894 9.5189-6.0154 20.285-11.95 26.908-20.813 9.8966-13.245 14.879-30.455 22.649-45.512 8.1809-15.852 17.275-31.255 25.204-47.215 3.1956-6.4319 4.1828-14.178 8.1708-19.961 4.0142-5.821 10.028-10.604 15.836-14.851 7.5614-5.5293 15.547-11.816 24.273-14.479 8.024-2.448 17.329-1.0118 25.976-0.85168 6.6831 0.12376 13.478 0.4992 20.015 1.7034 4.2511 0.78309 8.1724 4.1237 12.349 4.2584 4.6237 0.14915 10.166-1.2692 14.053-3.4067 1.7915-0.98532 2.9809-3.8745 2.9809-5.9618 0-3.5906 0.06681-9.4787-2.9809-11.072-9.4436-4.9364-24.439-3.8107-34.493-8.5168-3.2891-1.5396-5.9818-7.2475-5.5359-10.22 0.4058-2.7052 5.0328-5.1668 8.091-6.8134 4.3231-2.3278 9.6773-2.8414 14.053-5.1101 3.2897-1.7058 7.0702-3.7707 8.9427-6.8134 2.6698-4.3385 0.88013-12.757 4.6842-15.33 5.8483-3.9562 17.354-6.5703 24.273-4.2584 7.4181 2.4788 14.044 11.64 18.737 18.631 2.1205 3.1587 1.9653 7.9211 1.7034 11.817-0.30587 4.5499-3.639 9.0202-3.4067 13.52 0.33552 6.5007 3.9512 12.901 5.1101 19.482 0.82839 4.704 1.1509 9.6222 0.85169 14.372-0.2686 4.2638-2.555 8.4122-2.555 12.669 0 7.0282 3.2876 14.455 2.555 21.186-0.40303 3.7028-3.7461 6.901-5.9618 10.114-2.0428 2.962-6.0594 5.1743-6.8135 8.4104-0.94933 4.0742-0.07779 9.4605 1.7034 13.52 3.045 6.9409 10.686 12.452 12.775 19.482 1.6015 5.3898-0.04395 12.438-1.7034 17.779-0.61175 1.969-3.1542 3.8158-5.1101 4.152-2.5864 0.44454-6.0739-0.43567-8.5168-1.8098-3.2349-1.8196-8.6734-6.3228-8.5168-7.7716 0.12727-1.1773 8.2733 1.5846 9.3685-0.10646 1.3179-2.035-0.3242-8.0172-2.1292-11.072-1.8856-3.191-6.4418-4.6879-8.9426-7.6651-3.4609-4.1201-5.2201-11.935-8.9427-13.627-2.5231-1.1468-10.533 2.4524-9.7943 5.1101 2.1007 7.5624 13.759 16.673 18.311 25.55 1.1254 2.1945 0.45541 6.238-1.2775 7.6651-3.0933 2.5474-9.5068 5.0615-13.201 4.2584-2.8354-0.61638-5.233-5.3828-6.3876-8.5168-0.83263-2.26 1.625-5.6095 0.42584-7.6651-2.7754-4.7578-8.0668-9.6822-12.349-12.775-0.8275-0.59763-3.1009 0.74332-2.9809 1.7034 0.44778 3.5823 4.2607 7.8296 4.6842 11.924 0.42816 4.139-0.78264 8.7355-2.1292 12.775-1.2085 3.6254-4.3182 6.567-5.5359 10.22-3.0407 9.122-8.1999 19.3-7.2393 28.105 0.74275 6.8086 7.2501 14.113 12.349 18.737 2.14 1.9407 6.6324-0.3244 9.3685 0.95814 4.0774 1.9113 10.756 5.8956 11.072 8.6233 0.25155 2.1695-5.8306 5.5289-9.3685 6.0682-8.1018 1.235-17.328 0.60856-25.55-0.74522-3.4167-0.56251-7.4006-2.2098-9.3685-5.0036-5.9811-8.491-13.501-18.834-14.479-28.851-1.01-10.353 8.3345-21.727 8.5168-32.257 0.10155-5.8648-3.8219-14.176-7.6651-16.927-2.4025-1.7199-9.1223 0.66191-11.072 3.5132-3.7283 5.4526-3.6316 14.377-5.9618 21.398-3.0638 9.2317-10.516 18.434-10.22 27.36 0.27146 8.178 6.6003 18.579 11.924 23.954 2.058 2.0777 7.8423-2.7462 10.22-1.5969 1.8806 0.90894 3.8418 6.0642 2.555 7.7716-2.4039 3.1898-8.8444 6.5109-13.627 6.9199-6.0055 0.51364-12.755-2.1495-18.737-4.1519z" fill-rule="evenodd"/>
</svg>
