<svg  version="1.1" viewBox="0 0 846.80876 517.08954" xmlns="http://www.w3.org/2000/svg">
 <path d="m453.55 141.47c-17.283 0.0849-34.753 2.2322-50.85 8.0957-12.439 4.5311-22.429 14.084-33.344 21.576-14.663 10.065-29.766 19.672-43.152 31.383-14.966 13.093-28.544 27.805-41.189 43.15-12.228 14.84-23.209 30.733-33.344 47.074-5.0877 8.2038-13.73 25.498-13.73 25.498s-15.811 38.499-25.498 56.881c-6.4299 12.202-13.22 24.334-21.576 35.307-8.6877 11.408-18.547 22.036-29.422 31.383-9.6269 8.2739-20.018 15.916-31.381 21.574-9.254 4.6084-19.186 8.3569-29.422 9.8086-16.196 2.2971-32.723-0.73204-49.035-1.9629-5.9042-0.44551-11.774-1.2669-17.654-1.9609-5.2342-0.61776-10.429-1.6335-15.689-1.9609-5.2204-0.32497-15.691 0-15.691 0l-1.9629 3.9219s12.026 12.155 19.615 15.691c18.131 8.4486 39.213 7.9193 58.842 11.77 16.987 3.3321 33.765 8.1648 50.998 9.8066 9.7624 0.93011 19.697 1.2796 29.42 0 18.79-2.473 37.297-7.7383 54.92-14.711 9.656-3.8205 18.515-9.4377 27.461-14.711 16.091-9.4852 47.072-30.402 47.072-30.402l23.537-18.633 22.557-16.672 27.461-3.9219-0.98047 15.691s-3.0772 12.488-1.9629 18.633c0.78255 4.3155 5.5739 7.3928 5.8848 11.768 0.21985 3.0935-1.9607 5.884-2.9414 8.8262l-7.8457 23.537v6.8652l12.748 8.8262 13.73 3.9238 5.8848 0.98046 7.8457 2.9414-1.9609-5.8828 3.9219-1.9629 4.9043 2.9434h7.8457l-0.98047-7.8457 2.9414 0.98047 7.8457 4.9024 1.9609-8.8262 3.9238 2.9434h0.98047v-7.8457l-11.77-7.8457-9.8066-6.8652s-1.3303-5.2334-0.98046-7.8457c0.79773-5.9569 5.1583-10.909 6.8652-16.672 3.0228-10.205 5.8828-31.383 5.8828-31.383l0.98242-14.711 4.9024-6.8652 45.113 8.8262 20.594 1.9629 5.8848 13.729s-2.1361 10.58-0.98046 15.691c1.4844 6.5657 7.5562 11.308 9.8066 17.652 1.8866 5.3185 2.0129 11.108 2.9434 16.674 1.0368 6.202 2.9414 18.633 2.9414 18.633s17.503 4.7676 26.479 4.9043c8.5985 0.13097 25.5-3.9238 25.5-3.9238s-2.3825 9.2309 0 12.75c2.9608 4.3732 14.709 5.8828 14.709 5.8828l10.789 4.9043 0.98047-7.8457h2.9414l8.8262 3.9219v-5.8828l1.9629-2.9434 8.8262 3.9238v-6.8652h4.9024l5.8848 1.9609v-8.8262l-23.537-17.652s-2.8872-24.249-4.9023-36.287c-1.1008-6.576-5.5648-13.151-3.9238-19.613 1.2568-4.9493 9.8066-11.77 9.8066-11.77s9.1213 2.3244 13.73 1.9629c4.4331-0.34772 8.3527-3.2625 12.75-3.9238 3.8789-0.58337 7.845 0 11.768 0 3.5957 0 7.253 0.66296 10.787 0 6.2058-1.1642 11.448-5.7011 17.654-6.8652 6.7469-1.2657 20.594 0 20.594 0l10.789 6.8652s3.2631 10.34 3.9219 15.691c0.99855 8.1113-1.3948 16.465 0 24.518 0.82943 4.7885 4.9285 8.8708 4.9043 13.73-0.033 6.6192-9.2013 12.439-6.8652 18.633 3.149 8.3486 23.537 12.75 23.537 12.75l7.8457 2.9414v-7.8457l4.9023 1.9629 8.8262 1.9609v-4.9043l11.77 1.9609v-2.9414l6.8652 0.98046-4.9043-12.748-11.768-15.691-6.8652-56.883v-22.555l2.9414-16.672-38.248-103.96s-12.1 1.9477-17.652 0c-7.9008-2.7715-12.973-10.59-19.613-15.689-12.238-9.3981-24.56-18.708-37.268-27.461-17.923-12.345-36.1-24.376-54.92-35.305-14.667-8.5175-29.168-17.751-45.111-23.537-20.132-7.3059-41.371-12.756-62.766-13.73-3.9493-0.17982-7.9276-0.26959-11.916-0.25zm93.313 296.42 7.8472 40.209-14.711-28.441z" fill-rule="evenodd" stroke="currentColor" stroke-width="1px" fill="currentColor"/>
 <path d="m700.83 257.45s29.686-1.7282 42.17-8.8264c14.28-8.1189 24.815-22.248 33.344-36.286 5.9604-9.8102 8.8987-21.249 11.769-32.363 1.5721-6.0884 2.2005-12.389 2.9421-18.633 0.96696-8.1415 2.5917-16.343 1.9614-24.518-1.0851-14.072-5.6867-27.691-9.8071-41.19-2.4462-8.0142-4.29-16.492-8.8264-23.537-1.2514-1.9435-3.2956-3.2429-4.9035-4.9036-4.9872-5.1507-14.711-15.691-14.711-15.691l-8.8264-6.865s-9.2515 3.1088-13.73 1.9614c-4.7501-1.217-11.769-8.8264-11.769-8.8264s-15.211 1.4289-20.595-2.9421c-2.9705-2.4118-3.9228-10.788-3.9228-10.788l14.711 0.98071-10.788-4.9036s3.7684-7.2903 6.865-9.8071c1.932-1.5703 4.6226-1.8605 6.865-2.9421 4.3474-2.0969 8.069-5.685 12.749-6.865 4.1208-1.0389 8.5088-0.28145 12.749 0 4.9361 0.32762 9.9501 0.61625 14.711 1.9614 6.1966 1.751 12.011 4.741 17.653 7.8457 7.2283 3.9781 20.595 13.73 20.595 13.73l15.691 18.633s11.556 21.36 16.672 32.363c5.3755 11.561 11.469 22.975 14.711 35.306 4.1862 15.921 4.6857 32.617 5.8842 49.035 0.90472 12.394 1.8155 24.868 0.98071 37.267-0.82313 12.226-2.8608 24.412-5.8842 36.286-3.1633 12.424-7.7478 24.482-12.749 36.286-4.8479 11.442-9.9968 22.863-16.672 33.344-6.4997 10.206-14.035 19.85-22.556 28.441-9.1681 9.2431-19.516 17.377-30.402 24.518-6.4799 4.2508-20.595 10.788-20.595 10.788z" fill="currentColor" fill-rule="evenodd" stroke="currentColor" stroke-width="1px"/>
</svg>
