<?xml version="1.0" standalone="no"?>
<!DOCTYPE svg PUBLIC "-//W3C//DTD SVG 20010904//EN"
 "http://www.w3.org/TR/2001/REC-SVG-20010904/DTD/svg10.dtd">
<svg version="1.0" xmlns="http://www.w3.org/2000/svg"
  viewBox="0 0 1280.000000 660.000000"
 preserveAspectRatio="xMidYMid meet">
<metadata>
Created by potrace 1.15, written by Peter Selinger 2001-2017
</metadata>
<g transform="translate(0.000000,660.000000) scale(0.100000,-0.100000)"
fill="currentColor" stroke="none">
<path d="M10840 6594 c-261 -22 -373 -41 -447 -76 -59 -27 -132 -99 -202 -198
-129 -183 -156 -288 -201 -790 -39 -429 -75 -567 -159 -609 -77 -40 -225 -20
-379 49 -36 17 -94 37 -128 45 -109 25 -318 38 -514 31 -580 -20 -1197 -127
-1593 -276 -134 -51 -271 -74 -547 -94 -209 -15 -316 -20 -1200 -51 -1045 -37
-1766 -102 -2505 -225 -352 -59 -862 -170 -1180 -256 -538 -146 -1449 -461
-1707 -590 -63 -32 -92 -54 -69 -54 24 0 295 56 587 120 436 97 562 123 784
164 1132 207 2137 257 2920 146 387 -55 889 -161 1276 -269 460 -129 776 -254
934 -371 80 -59 164 -102 350 -177 216 -88 356 -178 396 -255 15 -29 15 -32
-20 -82 -19 -28 -90 -109 -156 -181 -182 -196 -290 -346 -290 -404 0 -37 -80
-178 -166 -291 -114 -149 -181 -253 -195 -300 -14 -46 2 -183 72 -600 62 -375
97 -549 114 -577 29 -44 185 -99 353 -123 67 -9 331 -14 417 -8 89 7 133 -24
201 -143 52 -90 53 -90 214 -113 236 -34 495 -45 575 -26 22 6 91 15 153 20
113 9 156 23 169 56 10 27 -21 79 -87 144 -78 78 -157 132 -228 155 -81 27
-144 114 -178 246 -14 54 -14 63 0 84 21 31 78 49 137 42 55 -7 100 -28 147
-69 18 -15 37 -26 43 -23 15 10 10 53 -10 93 -26 51 -136 154 -198 186 -89 45
-150 34 -302 -54 -54 -31 -99 -50 -118 -50 -70 0 -110 75 -137 261 -20 130
-20 169 -2 237 30 113 116 234 406 572 235 274 318 376 403 500 108 158 177
315 177 404 0 104 50 174 137 195 61 15 122 -2 192 -53 66 -49 145 -80 281
-110 127 -29 193 -56 232 -93 58 -55 43 -142 -38 -232 -68 -75 -114 -76 -200
-5 -23 19 -47 34 -53 34 -5 0 -13 -21 -16 -47 -9 -73 -15 -78 -78 -76 -67 4
-79 -8 -79 -74 1 -61 12 -91 51 -136 46 -51 119 -80 221 -85 107 -5 180 9 272
55 96 49 151 105 199 207 51 110 56 113 106 77 59 -43 95 -94 95 -135 0 -44
-79 -195 -142 -274 -55 -69 -124 -117 -179 -126 -50 -8 -86 8 -75 32 13 32 9
56 -9 60 -28 6 -56 -26 -94 -106 -55 -115 -107 -133 -127 -44 -6 23 -14 42
-18 42 -13 0 -67 -90 -78 -129 -8 -29 -6 -43 11 -78 27 -55 165 -182 238 -220
49 -24 67 -28 141 -28 74 1 94 5 153 32 224 105 275 183 482 732 l74 193 -222
257 c-121 141 -247 285 -279 321 l-57 66 30 204 c16 113 40 248 53 301 43 174
51 185 331 464 336 335 403 426 530 721 153 359 236 490 359 569 193 123 428
200 827 270 511 90 620 137 723 313 65 111 68 145 20 239 -44 87 -109 163
-169 198 -145 85 -605 185 -1059 230 -145 15 -603 27 -696 19z m-3416 -4669
c13 -34 -41 -144 -171 -348 -52 -81 -101 -164 -110 -184 -31 -76 -15 -162 68
-362 21 -51 39 -104 39 -117 0 -32 -27 -44 -97 -44 -150 0 -196 95 -197 410
-1 143 2 174 21 235 38 121 120 228 253 329 113 87 180 115 194 81z"/>
</g>
</svg>
