<svg version="1.1" viewBox="0 0 660.31 362.77" xmlns="http://www.w3.org/2000/svg" xmlns:cc="http://creativecommons.org/ns#" xmlns:dc="http://purl.org/dc/elements/1.1/" xmlns:rdf="http://www.w3.org/1999/02/22-rdf-syntax-ns#">
<title>sauropod silhouette</title>
<metadata>
<rdf:RDF>
<cc:Work rdf:about="">
<dc:format>image/svg+xml</dc:format>
<dc:type rdf:resource="http://purl.org/dc/dcmitype/StillImage"/>
<dc:title>sauropod silhouette</dc:title>
<dc:date>12/01/2013</dc:date>
<dc:creator>
<cc:Agent>
<dc:title>edited by Paul Sherman</dc:title>
</cc:Agent>
</dc:creator>
<dc:rights>
<cc:Agent>
<dc:title>PD</dc:title>
</cc:Agent>
</dc:rights>
<dc:publisher>
<cc:Agent>
<dc:title>WPClipart</dc:title>
</cc:Agent>
</dc:publisher>
<dc:subject>
<rdf:Bag>
<rdf:li>dinosaur</rdf:li>
<rdf:li>sauropod</rdf:li>
<rdf:li>animal</rdf:li>
<rdf:li>extinct</rdf:li>
</rdf:Bag>
</dc:subject>
<cc:license rdf:resource="http://creativecommons.org/publicdomain/zero/1.0/"/>
</cc:Work>
<cc:License rdf:about="http://creativecommons.org/publicdomain/zero/1.0/">
<cc:permits rdf:resource="http://creativecommons.org/ns#Reproduction"/>
<cc:permits rdf:resource="http://creativecommons.org/ns#Distribution"/>
<cc:permits rdf:resource="http://creativecommons.org/ns#DerivativeWorks"/>
</cc:License>
</rdf:RDF>
</metadata>
<path d="m501.96 358.08c-2.0625-0.30157-4.4513-1.1284-5.3085-1.8375-2.9738-2.4598-6.5611-17.544-7.7682-32.665-0.66738-8.3599-1.6972-16.887-2.2884-18.95l-1.075-3.75-1.6223 3.0197c-2.2124 4.1182-3.2413 32.386-1.3837 38.015 0.7784 2.3586 2.5191 5.2873 3.8682 6.5082 1.3491 1.2209 2.4529 3.4647 2.4529 4.9862 0 2.7321-0.18124 2.7589-14.688 2.166-17.379-0.71025-18.999-1.5582-17.036-8.9149 1.0097-3.7827 0.7949-7.318-0.96872-15.945-2.7402-13.404-2.9142-30.519-0.42928-42.249 1.0094-4.7651 1.6569-8.8422 1.4388-9.0603-0.21811-0.2181-5.4132 1.769-11.545 4.4158-19.642 8.4792-31.521 11.93-36.164 10.505l-4.0559-1.2448-0.89169 17.307c-1.1595 22.505 0.24006 30.479 6.6266 37.755 1.7279 1.9685 1.749 2.4191 0.16176 3.454-1.0039 0.65463-3.5128 1.0643-5.5753 0.91035-2.0625-0.15392-6.6446 0.16461-10.182 0.70786-4.8732 0.7483-7.3342 0.52134-10.153-0.93632-3.3862-1.751-3.8474-2.7761-5.1301-11.4-0.77519-5.212-1.4182-15.5-1.429-22.863-0.017-11.666-2.1449-26.593-4.0647-28.512-0.95897-0.95896-11.419 20.118-15.143 30.513-3.6906 10.302-4.2559 20.466-1.5045 27.051 0.97275 2.3281 1.4415 4.56 1.0417 4.9598-1.4419 1.4419-16.298 0.68609-22.299-1.1345-3.3749-1.0238-7.4609-1.8676-9.08-1.875-2.6782-0.0125-2.8872-0.4365-2.3171-4.701 2.3944-17.909 6.7056-38.615 9.7712-46.929 4.9454-13.413 4.8368-14.297-1.8788-15.304-7.9646-1.1944-21.83 2.6854-51.278 14.348-28.908 11.449-36.728 13.981-56.177 18.186-21.689 4.6893-42.433 6.8316-74.551 7.699-26.446 0.71422-31.556 0.50366-51.25-2.1115-26.564-3.5274-45.354-3.8151-55-0.84208-9.9232 3.0584-11.225 4.0855-8.1189 6.4067 3.7311 2.7886 25.028 9.3033 34.994 10.705 18.339 2.579 51.212 0.91746 73.8-3.7302 14.602-3.0044 62.495-5.597 80.575-4.3618 16.02 1.0945 30.408 3.6495 38.924 6.9122 6.9828 2.6753 16.076 9.0676 16.076 11.301 0 1.5422-12.978 1.4778-21.328-0.10575-17.249-3.2712-37.292-5.0498-56.797-5.0399-18.484 9e-3 -24.638 0.58148-47.275 4.3956-33.737 5.6843-55.938 7.3977-83.975 6.4807-24.68-0.80717-39.427-3.3731-51.714-8.9983-15.732-7.2024-19.839-16.392-13.189-29.514 7.0756-13.963 16.485-18.223 49.278-22.308 19.405-2.4175 60.547-11.073 72.241-15.199 23.091-8.1463 32.875-14.252 97.994-61.155 38.065-27.417 66.801-46.516 79.685-52.961 22.201-11.106 55.817-15.938 78.932-11.348 10.703 2.1258 27.368 6.0406 82.788 19.448 52.996 12.821 59.559 14.004 76.904 13.859 11.488-0.0961 16.519-0.65147 19.738-2.1792 10.845-5.1465 36.334-39.899 51.007-69.546 6.9457-14.034 8.4749-18.35 10.071-28.422 2.385-15.053 2.6121-49.887 0.3291-50.494-6.8519-1.8207-9.1871-3.283-12.439-7.7898-3.533-4.8964-3.6272-5.3409-1.8541-8.75 4.3077-8.2823 12.956-12.967 23.94-12.967 5.3591 0 7.506 0.59091 9.5412 2.626 3.8384 3.8384 7.1836 12.19 8.1392 20.32 0.4605 3.9181 1.3205 7.4225 1.911 7.7875 1.3965 0.86309 1.4024 24.65 6e-3 26.204-0.587 0.65312-1.7559 9.3438-2.5976 19.312-2.5953 30.738-8.0896 63.453-12.366 73.631-7.4504 17.733-19.165 37.526-27.638 46.698-8.7252 9.4451-40.111 36.854-47.525 41.504-2.4368 1.5282-11.462 7.296-20.055 12.817s-17.378 10.928-19.52 12.015c-4.3176 2.1901-8.1142 10.072-10.625 22.058-2.1266 10.152-0.62447 29.354 3.9025 49.884 3.2318 14.657 3.6556 18.179 2.2914 19.043-1.6995 1.0772-12.343 1.175-19.174 0.17623z"/>
</svg>
