<?xml version='1.0' encoding='utf-8'?>
<svg xmlns="http://www.w3.org/2000/svg" version="1.1" width="600px" height="976px" viewBox="0 0 600 976"> <g id="layer1"> <g style="fill:rgb(0,0,0); fill-opacity:1.0; stroke-linejoin: miter"> <path d="M287.6765,490.91315C287.67526,490.91446,287.67438,490.916,287.67343,490.91852C287.67334,490.9188,287.67322,490.9191,287.6732,490.91922C287.67313,490.9193,287.67307,490.9195,287.67307,490.91962C287.67303,490.91974,287.67294,490.91995,287.67288,490.92014C287.67282,490.9203,287.6727,490.92065,287.67264,490.9209C287.6722,490.9222,287.67096,490.92505,287.67065,490.92535C287.67053,490.92548,287.67023,490.92596,287.67023,490.92606C287.67023,490.9261,287.6701,490.92624,287.66995,490.92636C287.6697,490.9266,287.6697,490.9266,287.6694,490.92648C287.66925,490.9264,287.66907,490.92633,287.669,490.92633C287.66888,490.92633,287.66812,490.92685,287.66782,490.92715C287.66757,490.92737,287.66663,490.92865,287.66647,490.92892C287.66638,490.92908,287.6663,490.92914,287.66617,490.9291C287.666,490.92908,287.666,490.92905,287.6659,490.92706C287.6658,490.92435,287.66586,490.9216,287.66602,490.9214C287.66617,490.92123,287.66605,490.92105,287.66586,490.92117C287.66556,490.92133,287.66498,490.92276,287.66476,490.92383C287.66473,490.92395,287.66446,490.92432,287.66418,490.92465C287.66357,490.92535,287.66278,490.92685,287.66278,490.9273C287.66278,490.9274,287.66275,490.92755,287.6627,490.92764C287.6626,490.92783,287.66238,490.92877,287.66223,490.9297C287.6621,490.93054,287.662,490.93073,287.66165,490.93088C287.66132,490.931,287.6611,490.93097,287.66107,490.93073C287.661,490.93048,287.66083,490.9305,287.6608,490.93076C287.66074,490.93124,287.66064,490.9314,287.6602,490.93185C287.65952,490.9325,287.65918,490.93307,287.65897,490.93396C287.65884,490.9344,287.6587,490.9348,287.65863,490.93494C287.65857,490.9351,287.6585,490.9353,287.6585,490.93542C287.6585,490.93555,287.65845,490.9357,287.6584,490.93582C287.6582,490.9361,287.658,490.93677,287.65796,490.93707C287.65796,490.93726,287.6579,490.9376,287.6578,490.93787C287.65768,490.93823,287.6576,490.93835,287.6574,490.93848C287.65707,490.93863,287.6569,490.9391,287.65674,490.94028C287.65656,490.9413,287.65628,490.94193,287.65594,490.94196C287.65573,490.942,287.6557,490.94196,287.6557,490.94168C287.6557,490.94153,287.65567,490.9413,287.6556,490.94122C287.6555,490.9411,287.6555,490.9411,287.65533,490.94125C287.65518,490.94144,287.65475,490.94263,287.65475,490.9429C287.65475,490.9432,287.6546,490.94342,287.6542,490.94382C287.65387,490.94412,287.6538,490.94415,287.65353,490.94412C287.65335,490.9441,287.6527,490.94406,287.6521,490.944C287.65146,490.94397,287.65085,490.9439,287.65076,490.94385C287.65063,490.9438,287.65012,490.94333,287.6496,490.94284C287.6491,490.94232,287.6485,490.9418,287.6483,490.94165C287.64807,490.9415,287.6475,490.94113,287.64703,490.9408C287.64633,490.9403,287.64484,490.93948,287.6434,490.93878C287.64243,490.9383,287.63998,490.93716,287.63947,490.93695C287.63925,490.93686,287.63892,490.9367,287.63873,490.93665C287.63852,490.93655,287.63818,490.93643,287.63794,490.93634C287.6377,490.93625,287.6374,490.93613,287.63724,490.93607C287.6371,490.936,287.6368,490.93588,287.63657,490.9358C287.63635,490.9357,287.63602,490.93558,287.6358,490.9355C287.63562,490.9354,287.6354,490.93533,287.63535,490.93533C287.63525,490.93533,287.6352,490.9353,287.63513,490.93527C287.63507,490.9352,287.63464,490.93503,287.6342,490.93484C287.6334,490.93454,287.6328,490.9343,287.63235,490.9341C287.63223,490.93405,287.63196,490.93393,287.63168,490.93384C287.6311,490.9336,287.6303,490.93323,287.62872,490.93246C287.62762,490.93192,287.6249,490.9304,287.6246,490.9301C287.62454,490.93005,287.62442,490.93,287.6244,490.93C287.62418,490.9299,287.62164,490.92825,287.6208,490.92758C287.62027,490.92722,287.61972,490.9268,287.61954,490.9267C287.6194,490.92657,287.6192,490.92642,287.6191,490.92636C287.61905,490.9263,287.61874,490.92606,287.6185,490.92587C287.61823,490.92566,287.6177,490.92526,287.6174,490.925C287.61658,490.92435,287.61536,490.9233,287.61505,490.92307C287.61493,490.92294,287.61478,490.92282,287.61478,490.92282C287.61475,490.92282,287.61465,490.92276,287.6146,490.9227C287.61453,490.9226,287.61447,490.92255,287.6144,490.92258C287.61438,490.92264,287.6147,490.92297,287.61505,490.92337C287.61542,490.92377,287.61594,490.9243,287.61618,490.92456C287.61642,490.92484,287.61682,490.92523,287.61703,490.92548C287.61728,490.92572,287.61765,490.92612,287.61786,490.92636C287.61807,490.9266,287.61832,490.92682,287.61835,490.92685C287.61844,490.92688,287.6188,490.9272,287.61917,490.92755C287.61957,490.92792,287.61996,490.92822,287.62003,490.92828C287.62012,490.9283,287.62027,490.92844,287.62033,490.92853C287.6204,490.92862,287.62064,490.9288,287.62082,490.92896C287.62128,490.92932,287.6238,490.93137,287.62405,490.93155C287.62415,490.93164,287.62473,490.93207,287.62537,490.93256C287.62598,490.933,287.62653,490.93344,287.62662,490.9335C287.62668,490.93356,287.62735,490.93402,287.62808,490.9345C287.62885,490.93503,287.62952,490.93546,287.62958,490.93552C287.63037,490.93604,287.63467,490.93857,287.6348,490.93857C287.63483,490.93857,287.63498,490.93866,287.63516,490.93875C287.63535,490.93887,287.63593,490.9392,287.63644,490.93948C287.63696,490.93976,287.63748,490.94003,287.63757,490.9401C287.63766,490.94016,287.6379,490.94028,287.63806,490.94037C287.6384,490.94055,287.63934,490.94116,287.6409,490.9422C287.64188,490.94284,287.64243,490.9433,287.64243,490.94348C287.64243,490.94354,287.6424,490.94354,287.64236,490.94348C287.6423,490.9434,287.6409,490.94275,287.64075,490.94275C287.64072,490.94275,287.64053,490.9427,287.64038,490.94263C287.63943,490.94223,287.638,490.9418,287.63666,490.9415C287.6363,490.9414,287.63574,490.94128,287.6354,490.9412C287.63507,490.9411,287.63458,490.94098,287.63434,490.94095C287.63412,490.9409,287.63358,490.94077,287.63312,490.94064C287.6327,490.94055,287.6321,490.9404,287.6318,490.94034C287.63116,490.94022,287.62885,490.93964,287.62814,490.93945C287.62787,490.9394,287.62744,490.93927,287.62723,490.9392C287.62698,490.93915,287.62677,490.9391,287.6267,490.9391C287.62665,490.9391,287.62646,490.93903,287.62634,490.93896C287.62616,490.9389,287.6256,490.9387,287.62503,490.9385C287.62448,490.93832,287.62375,490.93805,287.62338,490.9379C287.62302,490.9377,287.6226,490.93753,287.62244,490.93747C287.62207,490.93732,287.62112,490.93683,287.62027,490.93637C287.61996,490.9362,287.61957,490.936,287.61948,490.93594C287.61935,490.93588,287.61908,490.93573,287.61887,490.93558C287.61865,490.93546,287.61847,490.93533,287.61844,490.93533C287.61844,490.93533,287.6182,490.9352,287.61795,490.93506C287.6177,490.9349,287.61737,490.93472,287.61722,490.93463C287.6171,490.93457,287.6164,490.9341,287.61566,490.93362C287.61398,490.9325,287.61383,490.93256,287.6153,490.9338C287.61563,490.93408,287.61618,490.93454,287.6165,490.9348C287.617,490.93527,287.61792,490.93597,287.61823,490.93616C287.6183,490.9362,287.61877,490.93652,287.61926,490.93686C287.61975,490.9372,287.62024,490.93753,287.62036,490.9376C287.62048,490.93768,287.62082,490.9379,287.6211,490.9381C287.6214,490.9383,287.62167,490.93848,287.62167,490.93848C287.6217,490.93848,287.6219,490.9386,287.6221,490.93872C287.6223,490.93887,287.62253,490.939,287.6226,490.939C287.62262,490.939,287.62274,490.93906,287.6228,490.93912C287.6231,490.9394,287.6261,490.94098,287.62723,490.94144C287.6275,490.94156,287.62796,490.94174,287.62827,490.9419C287.62857,490.94202,287.6288,490.94214,287.62885,490.94214C287.6289,490.94214,287.63037,490.94275,287.63095,490.94302C287.63116,490.9431,287.63135,490.94318,287.63138,490.94318C287.63144,490.94318,287.63205,490.94345,287.63278,490.94376C287.63293,490.94382,287.63327,490.94397,287.6335,490.94406C287.63397,490.94424,287.6368,490.94565,287.63712,490.9458C287.63718,490.94586,287.6379,490.9463,287.63876,490.94678C287.64032,490.9477,287.64114,490.94827,287.64166,490.94885L287.64197,490.9492L287.64194,490.9501C287.64194,490.9507,287.6419,490.95108,287.6418,490.95123C287.64163,490.95157,287.64105,490.95203,287.64056,490.9523C287.64032,490.95242,287.6399,490.95273,287.63962,490.95297C287.63867,490.9538,287.6384,490.95398,287.6373,490.9545C287.63672,490.9548,287.63626,490.95493,287.6352,490.9552C287.63492,490.95526,287.63455,490.95538,287.63437,490.95547C287.63406,490.95563,287.634,490.95563,287.63367,490.95547C287.63345,490.95538,287.63324,490.95532,287.63318,490.95532C287.6331,490.95532,287.63287,490.95526,287.6327,490.95517C287.6325,490.95505,287.63226,490.955,287.6322,490.955C287.6321,490.955,287.63202,490.95496,287.632,490.9549C287.63196,490.95486,287.6318,490.95477,287.63165,490.95474C287.6315,490.95468,287.63116,490.95456,287.6309,490.95447C287.63065,490.95435,287.63025,490.95422,287.63007,490.95416C287.62973,490.95404,287.6295,490.95395,287.62842,490.95346C287.62784,490.95322,287.62665,490.95264,287.62653,490.95255C287.62646,490.95248,287.62616,490.9523,287.62582,490.95215C287.62552,490.95197,287.62512,490.9517,287.62494,490.95154C287.62476,490.9514,287.6244,490.9511,287.6241,490.95087C287.62384,490.95065,287.6235,490.95035,287.62335,490.9502C287.62274,490.94965,287.6225,490.94977,287.6228,490.9505C287.62308,490.95117,287.62402,490.9531,287.62418,490.95325C287.6242,490.95328,287.62445,490.95364,287.62473,490.95407C287.62607,490.95612,287.62717,490.95728,287.62924,490.95883C287.62994,490.95938,287.63055,490.95987,287.6306,490.95996C287.63077,490.96014,287.63068,490.9609,287.63046,490.9614C287.63025,490.96188,287.63007,490.9625,287.62988,490.9633C287.62982,490.96362,287.62964,490.96417,287.6295,490.96448C287.62924,490.96503,287.62894,490.9661,287.62885,490.96686C287.62878,490.96735,287.62894,490.96915,287.62906,490.96957C287.62936,490.97043,287.6301,490.97168,287.63065,490.97235C287.63135,490.9732,287.63245,490.97403,287.6328,490.97403C287.63297,490.97403,287.63318,490.97375,287.63318,490.9735C287.63318,490.9733,287.63388,490.97174,287.63412,490.97147C287.6342,490.9714,287.63437,490.97116,287.63455,490.97092C287.63486,490.97052,287.63596,490.9695,287.63638,490.96924C287.63647,490.96915,287.63693,490.9688,287.6374,490.96848C287.63785,490.9681,287.6384,490.96774,287.63864,490.96762C287.63885,490.9675,287.6391,490.96735,287.63916,490.96732C287.63928,490.9672,287.63943,490.96732,287.6396,490.96768C287.63974,490.96802,287.63968,490.96823,287.6392,490.96924C287.63858,490.97046,287.63687,490.9724,287.63568,490.9732C287.63483,490.97382,287.6349,490.97406,287.63605,490.9746C287.63687,490.975,287.63794,490.97513,287.63913,490.975C287.63962,490.97495,287.6402,490.97485,287.64038,490.9748C287.64056,490.9747,287.641,490.97458,287.6413,490.9745C287.642,490.97427,287.64236,490.97406,287.64505,490.9723C287.64526,490.97214,287.64557,490.97186,287.64572,490.97168C287.6459,490.97147,287.64615,490.97128,287.64642,490.9712C287.6468,490.97107,287.64755,490.97067,287.64816,490.9703C287.64825,490.97025,287.6484,490.97015,287.6485,490.9701C287.6488,490.96994,287.64902,490.9698,287.64957,490.96942C287.65045,490.9688,287.651,490.9687,287.65305,490.96866C287.65424,490.96863,287.65497,490.96857,287.65533,490.96848C287.65607,490.9683,287.65796,490.96835,287.65872,490.96857C287.6592,490.96875,287.65927,490.96878,287.65997,490.96967C287.66086,490.97073,287.66193,490.97183,287.66245,490.97214C287.66278,490.97238,287.6629,490.97263,287.6627,490.97275C287.66266,490.9728,287.66254,490.973,287.6624,490.97324C287.66232,490.97345,287.6621,490.9739,287.66196,490.97424C287.6618,490.97458,287.66162,490.975,287.66153,490.97522C287.66132,490.97574,287.6612,490.976,287.66083,490.97675C287.66034,490.9778,287.66006,490.97842,287.65988,490.97888C287.65933,490.9803,287.65915,490.98096,287.6591,490.98145C287.659,490.9822,287.65857,490.98288,287.65756,490.98386C287.65714,490.98428,287.65677,490.9847,287.65677,490.9848C287.65677,490.98486,287.6567,490.98505,287.65665,490.9852C287.65628,490.9859,287.65607,490.98654,287.65604,490.98703C287.65604,490.9873,287.65607,490.98758,287.6561,490.98764C287.6562,490.9878,287.6568,490.9879,287.65723,490.98785C287.6576,490.98782,287.6576,490.98782,287.65765,490.9881C287.65768,490.98825,287.65778,490.98843,287.6578,490.9885C287.65796,490.98868,287.6589,490.98865,287.65952,490.98843C287.66003,490.98825,287.66052,490.98825,287.66162,490.9884C287.66196,490.98846,287.6621,490.9884,287.66263,490.98816C287.663,490.98798,287.6634,490.98782,287.66354,490.9878C287.66367,490.98773,287.66394,490.9876,287.66412,490.98746C287.66428,490.98734,287.66464,490.98712,287.66492,490.987C287.66556,490.9867,287.6659,490.98633,287.66595,490.98587C287.666,490.9857,287.66595,490.98495,287.66592,490.9843C287.6659,490.98364,287.66586,490.98297,287.6659,490.98282C287.66605,490.982,287.66626,490.98154,287.6668,490.98074C287.6676,490.9796,287.66833,490.97842,287.6686,490.97775C287.66873,490.97745,287.66885,490.97714,287.6689,490.97705C287.66895,490.97696,287.66907,490.97665,287.66916,490.97638C287.66928,490.97614,287.6694,490.9758,287.66943,490.97568C287.6695,490.97556,287.66962,490.97516,287.66974,490.97482C287.66986,490.97446,287.67,490.97412,287.67004,490.97406C287.6701,490.974,287.67053,490.9739,287.67102,490.97388C287.6715,490.97382,287.67224,490.9737,287.67267,490.97363C287.67307,490.97357,287.67358,490.97348,287.6738,490.97345C287.67426,490.9734,287.67465,490.9733,287.67548,490.97305C287.67627,490.9728,287.67642,490.9728,287.67694,490.97324C287.67722,490.97342,287.67764,490.9737,287.67795,490.97385C287.67822,490.974,287.6785,490.97418,287.6785,490.97418C287.67856,490.97427,287.6795,490.97482,287.67984,490.97498C287.68,490.97504,287.68008,490.9751,287.68008,490.97516C287.68008,490.9754,287.6797,490.97595,287.67914,490.97653C287.67874,490.97693,287.6785,490.97726,287.67847,490.97745C287.67844,490.9776,287.6783,490.97784,287.67822,490.97797C287.67792,490.9784,287.6782,490.97867,287.67892,490.97867C287.6793,490.97867,287.67944,490.97934,287.67926,490.98013C287.67917,490.9804,287.67908,490.98087,287.67902,490.9812C287.67886,490.9818,287.67828,490.9846,287.67816,490.98517C287.67813,490.98535,287.67807,490.98575,287.67807,490.98602C287.67807,490.98715,287.67776,490.98788,287.67712,490.98843C287.67682,490.98868,287.67664,490.98892,287.67654,490.9892C287.67648,490.9894,287.6763,490.98975,287.67615,490.98993C287.67603,490.99008,287.67587,490.99036,287.67584,490.99048C287.6758,490.9906,287.67575,490.99075,287.67572,490.99075C287.67566,490.99078,287.67563,490.99094,287.67563,490.99106C287.67563,490.99118,287.67554,490.99142,287.6754,490.99158C287.67517,490.99188,287.67502,490.99237,287.67502,490.9927C287.67502,490.99298,287.6753,490.9931,287.67596,490.99316L287.67654,490.9932L287.67654,490.99353C287.67654,490.99374,287.6766,490.99393,287.67676,490.99408C287.67697,490.9943,287.677,490.99432,287.67776,490.99426C287.6782,490.99423,287.67868,490.9942,287.67886,490.99417C287.67917,490.9941,287.6792,490.9941,287.67935,490.99448C287.67957,490.99496,287.67978,490.9951,287.6806,490.9951C287.68124,490.9951,287.68176,490.99496,287.68192,490.99472C287.68195,490.99472,287.6822,490.99463,287.68246,490.99457C287.68295,490.99448,287.68298,490.99448,287.68344,490.9947C287.68372,490.9948,287.68405,490.9949,287.68423,490.9949C287.6845,490.9949,287.68463,490.99484,287.68515,490.99426C287.68576,490.99362,287.68594,490.9933,287.68625,490.99234C287.68643,490.99176,287.68646,490.9906,287.68634,490.98865C287.68622,490.98694,287.68643,490.98587,287.6873,490.9841C287.68756,490.98355,287.68777,490.9831,287.68777,490.98306C287.68777,490.98303,287.68784,490.98285,287.68793,490.98264C287.68802,490.98245,287.68823,490.982,287.68835,490.98163C287.68872,490.98074,287.6893,490.97937,287.6894,490.97913C287.68942,490.97903,287.6895,490.97876,287.68958,490.97852C287.69034,490.97546,287.69034,490.97552,287.69037,490.97363L287.6904,490.9719L287.69104,490.97165C287.6914,490.97153,287.6919,490.9713,287.69214,490.9712C287.69238,490.97107,287.69266,490.97098,287.69272,490.97098C287.69284,490.97098,287.69354,490.97235,287.69354,490.97256C287.69354,490.97263,287.69357,490.97272,287.6936,490.97278C287.6937,490.97284,287.69446,490.97464,287.69485,490.97562C287.69495,490.97586,287.69507,490.97617,287.6951,490.97626C287.6954,490.97693,287.69568,490.97806,287.69577,490.97876C287.6958,490.979,287.6959,490.9794,287.69595,490.9796C287.69614,490.98007,287.69604,490.98163,287.69586,490.98212C287.69574,490.9824,287.69534,490.98297,287.69504,490.98328C287.6949,490.98343,287.6942,490.98434,287.69406,490.9846C287.69397,490.9847,287.69388,490.98492,287.69385,490.98505C287.69382,490.9852,287.69366,490.98547,287.69354,490.9857C287.69324,490.9861,287.6932,490.98636,287.6934,490.9865C287.69348,490.98657,287.6939,490.98666,287.69437,490.9867C287.6957,490.98682,287.69592,490.9869,287.69583,490.9873C287.6957,490.98804,287.6961,490.9883,287.69714,490.98822C287.69806,490.98813,287.69943,490.98816,287.6997,490.98828C287.69983,490.9883,287.70016,490.98853,287.70044,490.98877C287.70108,490.98926,287.7015,490.9893,287.70215,490.98892C287.7024,490.98877,287.7027,490.9886,287.70282,490.98853C287.70294,490.98846,287.7033,490.98816,287.70364,490.9879C287.7042,490.9875,287.70428,490.98734,287.70447,490.98685C287.7047,490.98618,287.70474,490.98502,287.70453,490.98425C287.70444,490.98398,287.70438,490.9836,287.7043,490.98343C287.70425,490.983,287.7038,490.98157,287.70364,490.98132C287.70316,490.98053,287.7029,490.9775,287.7032,490.97592C287.70343,490.97464,287.70334,490.97263,287.703,490.97156C287.70294,490.9713,287.7028,490.97086,287.7027,490.97058C287.7025,490.96988,287.7019,490.9687,287.70163,490.96835C287.70142,490.9681,287.70142,490.96802,287.70145,490.96753C287.70148,490.96725,287.70163,490.96646,287.70178,490.96576C287.70197,490.9651,287.70215,490.96426,287.7022,490.96393C287.70227,490.9636,287.70233,490.9633,287.7024,490.96323C287.70245,490.96317,287.70282,490.96295,287.70325,490.96274C287.70364,490.96255,287.7045,490.96207,287.7051,490.9617C287.70648,490.9609,287.70743,490.96045,287.7115,490.95862C287.7118,490.95847,287.71225,490.95825,287.71255,490.95813C287.71286,490.95798,287.71313,490.95786,287.71313,490.95786C287.7132,490.95786,287.71426,490.95737,287.7151,490.957C287.71567,490.9567,287.71664,490.95627,287.71695,490.95612C287.71707,490.9561,287.71722,490.956,287.71732,490.95593C287.7174,490.95587,287.71838,490.9554,287.71954,490.9549C287.72153,490.954,287.72708,490.9511,287.7274,490.9508C287.7277,490.95053,287.72775,490.95032,287.72763,490.9501C287.72757,490.95,287.7274,490.95,287.72687,490.9501C287.72623,490.95016,287.72583,490.95026,287.72433,490.95056C287.724,490.95065,287.72348,490.95074,287.72314,490.9508C287.72284,490.95084,287.72226,490.95093,287.7219,490.95102C287.7215,490.95108,287.72086,490.9512,287.72046,490.95126C287.72003,490.95132,287.71964,490.95142,287.71957,490.95145C287.71942,490.95148,287.71805,490.95166,287.71533,490.95203C287.7139,490.9522,287.7123,490.95236,287.71115,490.95245C287.71048,490.9525,287.7098,490.95258,287.70966,490.95258C287.7095,490.9526,287.70868,490.95264,287.70776,490.95264C287.70538,490.95267,287.70322,490.95242,287.70145,490.9519C287.70065,490.95166,287.70047,490.95154,287.69992,490.9509C287.69943,490.9503,287.6988,490.94965,287.69867,490.94965C287.69867,490.94965,287.69827,490.9494,287.69785,490.94907C287.69656,490.94812,287.69537,490.9473,287.6953,490.9473C287.69525,490.9473,287.695,490.94717,287.6947,490.94702C287.69443,490.9469,287.69373,490.94662,287.69315,490.94647C287.69257,490.9463,287.692,490.9461,287.69183,490.94604C287.69168,490.94595,287.69135,490.94586,287.6911,490.94577C287.68988,490.9454,287.6886,490.945,287.68842,490.94492C287.68832,490.94485,287.6881,490.9448,287.6879,490.94476C287.68735,490.94464,287.68686,490.94446,287.6867,490.94424L287.68652,490.94403L287.6862,490.9442C287.68573,490.9445,287.68555,490.94446,287.68518,490.94415L287.68488,490.94385L287.68454,490.94415C287.6842,490.94443,287.684,490.94443,287.6839,490.94418C287.6838,490.94397,287.684,490.94376,287.6843,490.94363C287.68445,490.94354,287.68472,490.9434,287.6849,490.94327C287.68506,490.9431,287.68527,490.94302,287.6853,490.94302C287.68536,490.94302,287.68558,490.9429,287.6858,490.94275C287.686,490.9426,287.68622,490.9425,287.68625,490.9425C287.68637,490.9425,287.68713,490.9418,287.68726,490.94156C287.6874,490.9413,287.6874,490.94128,287.6873,490.9412C287.68716,490.94107,287.6869,490.9411,287.68518,490.9415C287.68488,490.94156,287.68445,490.94162,287.68414,490.94165C287.6826,490.9418,287.68274,490.94183,287.6824,490.9415C287.68225,490.94135,287.682,490.94107,287.6819,490.94086C287.68176,490.94064,287.6816,490.94046,287.68158,490.94043C287.68146,490.94037,287.68146,490.94016,287.6816,490.93982C287.6817,490.93967,287.68173,490.93945,287.68173,490.93936C287.68167,490.93915,287.68185,490.9388,287.68256,490.93787C287.68353,490.93652,287.6848,490.93423,287.68497,490.93353C287.6851,490.933,287.68472,490.93292,287.68427,490.93335C287.68408,490.93353,287.68387,490.9337,287.6829,490.93445C287.6827,490.93457,287.6825,490.93472,287.68237,490.93478C287.68225,490.93484,287.68207,490.93497,287.68198,490.93506C287.6818,490.9352,287.68127,490.93552,287.68054,490.9359C287.68033,490.93604,287.68005,490.93613,287.67987,490.9361C287.67944,490.9361,287.67862,490.9359,287.6785,490.9358C287.6784,490.9357,287.67825,490.93497,287.67822,490.93454C287.67822,490.9344,287.67847,490.93393,287.6789,490.9333C287.67926,490.93274,287.67957,490.93222,287.67957,490.93216C287.67957,490.9321,287.6797,490.93182,287.6798,490.93155C287.67996,490.93127,287.68008,490.93094,287.68008,490.9308C287.68008,490.93036,287.67975,490.93042,287.67886,490.93106C287.67752,490.93198,287.6774,490.93204,287.67694,490.93192C287.67673,490.93185,287.67633,490.9318,287.67606,490.93173C287.6758,490.93167,287.6754,490.9316,287.6752,490.93158C287.6749,490.93152,287.6747,490.93155,287.6743,490.93167C287.674,490.93176,287.67374,490.93182,287.67368,490.9318C287.6736,490.9318,287.6735,490.93143,287.67337,490.93103C287.67328,490.93063,287.67313,490.93005,287.67303,490.92975C287.67288,490.92917,287.67288,490.92908,287.67322,490.92816C287.67346,490.92755,287.67386,490.92593,287.674,490.925C287.6741,490.9245,287.67422,490.9238,287.6743,490.92343C287.67435,490.9231,287.67444,490.92245,287.6745,490.92206C287.67468,490.92072,287.67505,490.91855,287.67517,490.918C287.67523,490.9178,287.67535,490.91727,287.67545,490.91684C287.67578,490.91544,287.67627,490.91412,287.67673,490.91348C287.67697,490.91315,287.6772,490.91284,287.67722,490.9128C287.6773,490.91278,287.6773,490.91254,287.67722,490.91254C287.6772,490.91254,287.67688,490.9128,287.6765,490.91315 Z M287.68307,490.9442C287.6832,490.94443,287.68265,490.94476,287.6825,490.94458C287.68243,490.94452,287.68246,490.94446,287.68262,490.9443C287.68283,490.94415,287.683,490.94412,287.68307,490.9442 Z"/> </g> </g> </svg>