<?xml version='1.0' encoding='utf-8'?>
<svg xmlns="http://www.w3.org/2000/svg" version="1.1" width="600px" height="976px" viewBox="0 0 600 976"> <g id="layer1"> <g style="fill:rgb(0,0,0); fill-opacity:1.0; stroke-linejoin: miter"> <path d="M287.6001,490.924C287.5999,490.9242,287.59964,490.92456,287.59955,490.92477C287.59937,490.92517,287.59933,490.92517,287.5989,490.92523C287.59863,490.92523,287.59842,490.92523,287.59836,490.9252C287.59833,490.9252,287.59833,490.92487,287.59836,490.9245C287.5984,490.92392,287.5984,490.9238,287.59827,490.9238C287.59802,490.9238,287.59763,490.9244,287.5974,490.9251C287.59738,490.92523,287.59726,490.9253,287.59708,490.9253L287.59683,490.9253L287.59683,490.92468C287.59683,490.92422,287.5968,490.92404,287.59668,490.92395C287.59656,490.92386,287.5965,490.9239,287.59625,490.92416C287.59604,490.9244,287.59595,490.9246,287.59592,490.92496C287.5959,490.9252,287.59583,490.92548,287.5958,490.92554C287.59576,490.92557,287.59515,490.9258,287.59448,490.92606C287.592,490.9269,287.59152,490.9271,287.59097,490.92746C287.59006,490.92807,287.58923,490.9288,287.58923,490.92896C287.58923,490.92905,287.58914,490.92917,287.58902,490.92923C287.5883,490.92963,287.5854,490.93225,287.5851,490.93283C287.58484,490.93332,287.5846,490.93417,287.5846,490.93454C287.5846,490.9348,287.58484,490.93597,287.585,490.9363C287.5851,490.9366,287.58554,490.9365,287.58694,490.93576C287.58768,490.93536,287.5883,490.9351,287.58832,490.9351C287.58835,490.9351,287.5882,490.9353,287.58804,490.93552C287.58774,490.93588,287.58694,490.93646,287.58673,490.93646C287.5866,490.93646,287.58624,490.93695,287.58624,490.93716C287.58624,490.9376,287.58755,490.9381,287.5883,490.938C287.5885,490.93796,287.589,490.93777,287.5894,490.9376C287.59033,490.93716,287.59094,490.93698,287.59332,490.93652C287.5965,490.93588,287.59708,490.93582,287.59888,490.93588C287.59973,490.9359,287.60062,490.93594,287.6008,490.93597C287.60098,490.936,287.6017,490.9361,287.6024,490.93616C287.60376,490.9363,287.60556,490.93668,287.60593,490.93686C287.60608,490.93692,287.60623,490.9371,287.60626,490.93723C287.60632,490.93735,287.60654,490.93774,287.60678,490.9381C287.6073,490.9389,287.6073,490.939,287.60706,490.9402C287.60687,490.94113,287.60678,490.94128,287.60596,490.9421C287.6048,490.94324,287.6044,490.94348,287.60355,490.94357C287.60272,490.94366,287.60178,490.94385,287.60074,490.94418C287.60022,490.94437,287.59976,490.9445,287.5997,490.9445C287.59964,490.9445,287.59924,490.94467,287.59885,490.94485C287.5979,490.9453,287.5974,490.94547,287.59622,490.94577C287.5957,490.9459,287.5952,490.94604,287.5951,490.94608C287.59497,490.94614,287.59467,490.9462,287.59442,490.94623C287.5937,490.94638,287.59277,490.94675,287.5909,490.94766C287.5892,490.94852,287.5881,490.9494,287.5854,490.9521C287.5845,490.95297,287.58377,490.95367,287.5837,490.95367C287.58368,490.95367,287.58334,490.95392,287.583,490.95422C287.58267,490.95453,287.58228,490.95483,287.58218,490.9549C287.5821,490.95496,287.58176,490.9552,287.58145,490.9554C287.58115,490.95563,287.58084,490.95584,287.5808,490.95593C287.58078,490.956,287.5807,490.95602,287.58066,490.95602C287.5806,490.95602,287.58038,490.95615,287.5802,490.9563C287.58,490.95642,287.57977,490.95654,287.5797,490.95654C287.5796,490.95654,287.57874,490.95755,287.57867,490.95776C287.57864,490.9579,287.57855,490.95798,287.57843,490.958C287.57806,490.9581,287.57648,490.95795,287.57574,490.95776C287.57538,490.95767,287.57498,490.9576,287.5749,490.95764C287.5748,490.95767,287.57474,490.95767,287.57474,490.95758C287.57474,490.95743,287.574,490.9571,287.57373,490.9571C287.57306,490.9571,287.5706,490.95486,287.56964,490.95337C287.56952,490.9532,287.56912,490.95267,287.56873,490.95227C287.56793,490.9514,287.5676,490.95096,287.56735,490.9506C287.56677,490.94962,287.566,490.94882,287.56308,490.94608C287.5621,490.94516,287.56104,490.94437,287.5592,490.9432C287.55902,490.94308,287.55872,490.94284,287.5585,490.9427C287.5583,490.94254,287.558,490.94238,287.5579,490.94235C287.5578,490.94232,287.55768,490.94226,287.55768,490.94223C287.55768,490.9422,287.55734,490.94202,287.55692,490.9418C287.5565,490.9416,287.5561,490.9414,287.55606,490.94135C287.55603,490.9413,287.5556,490.94107,287.5551,490.94083C287.55463,490.94058,287.55408,490.9403,287.5539,490.9402C287.5537,490.94006,287.55344,490.9399,287.55325,490.93985C287.55307,490.9398,287.55264,490.93964,287.55234,490.93945C287.552,490.9393,287.5517,490.93918,287.55164,490.93918C287.5516,490.93918,287.5514,490.9391,287.5512,490.939C287.551,490.9389,287.55045,490.9387,287.55,490.93854C287.54953,490.93835,287.54907,490.93817,287.54898,490.93814C287.54877,490.93802,287.54764,490.93774,287.54684,490.9376C287.54663,490.93756,287.54633,490.9375,287.54614,490.93744C287.546,490.93738,287.5457,490.93732,287.54547,490.93726C287.54523,490.9372,287.54492,490.9371,287.5447,490.937C287.54422,490.93686,287.5417,490.9363,287.54108,490.93625C287.54083,490.93622,287.54028,490.93616,287.53992,490.9361C287.53912,490.936,287.53754,490.93585,287.5366,490.9358C287.53558,490.9357,287.53223,490.93576,287.53064,490.93585C287.52838,490.936,287.52542,490.93643,287.52393,490.93686C287.5235,490.93698,287.52295,490.93713,287.5227,490.9372C287.52246,490.93726,287.52176,490.93747,287.52118,490.93765C287.52057,490.9378,287.5198,490.93805,287.51944,490.9381C287.5186,490.93835,287.51828,490.93854,287.5183,490.93875C287.5183,490.93887,287.51843,490.93896,287.5186,490.93903C287.5192,490.93918,287.5216,490.9389,287.5234,490.93845C287.52368,490.93835,287.52423,490.93826,287.52457,490.9382C287.52493,490.93817,287.52582,490.938,287.52655,490.93787C287.52835,490.9375,287.529,490.93744,287.53104,490.93738C287.534,490.9373,287.5367,490.9375,287.53882,490.938C287.54233,490.9388,287.5441,490.93933,287.5459,490.94C287.54782,490.94073,287.54822,490.9409,287.5495,490.94144C287.553,490.94293,287.5576,490.94623,287.56052,490.9494C287.56174,490.95068,287.56256,490.9516,287.56293,490.9521C287.5636,490.953,287.565,490.9559,287.56555,490.9576C287.56573,490.95816,287.56607,490.95905,287.56628,490.95956C287.5665,490.96008,287.56686,490.96097,287.56708,490.9615C287.5675,490.9625,287.56876,490.9647,287.56976,490.96613C287.5704,490.96704,287.5719,490.96893,287.57214,490.96912C287.57236,490.9693,287.5723,490.9697,287.57193,490.97046C287.57175,490.97086,287.5716,490.97122,287.5716,490.97125C287.5716,490.97128,287.57135,490.97177,287.5711,490.97232C287.57083,490.97287,287.57062,490.9734,287.57062,490.9735C287.57062,490.97363,287.57053,490.97372,287.5703,490.97382C287.57016,490.97388,287.56973,490.97418,287.5694,490.97446C287.56873,490.97507,287.5683,490.97574,287.568,490.97668C287.56784,490.97723,287.56775,490.97736,287.5672,490.9779C287.56677,490.9783,287.5664,490.97858,287.56607,490.97873C287.565,490.9792,287.56427,490.97958,287.5639,490.97998C287.56366,490.9802,287.56335,490.98047,287.56317,490.9806C287.563,490.9807,287.56274,490.98096,287.56265,490.98114C287.56247,490.98148,287.56247,490.98163,287.56244,490.98395C287.56244,490.9867,287.56235,490.98734,287.56174,490.98886C287.56158,490.9893,287.5613,490.9901,287.56113,490.9907C287.56097,490.99127,287.5607,490.992,287.56058,490.9923C287.56042,490.9926,287.5603,490.99295,287.5603,490.99304C287.5603,490.99347,287.56024,490.99353,287.55984,490.99332C287.55914,490.99298,287.55862,490.99313,287.55823,490.99384C287.558,490.99423,287.55798,490.9949,287.55817,490.9951C287.55826,490.99515,287.5583,490.99533,287.5583,490.99557C287.5583,490.99603,287.55847,490.99622,287.55878,490.99603C287.55896,490.99594,287.55905,490.99594,287.55923,490.99606C287.5597,490.99634,287.56015,490.99634,287.56094,490.9961C287.56134,490.99597,287.56174,490.99582,287.56186,490.99573C287.5621,490.99554,287.56287,490.99557,287.56305,490.9958C287.56314,490.99588,287.56342,490.99603,287.5637,490.99615L287.56415,490.99634L287.5646,490.9961C287.56488,490.99597,287.5652,490.99573,287.56534,490.99557C287.56555,490.9954,287.56573,490.99533,287.56613,490.99527C287.56644,490.9952,287.56683,490.9951,287.56705,490.995C287.56735,490.99484,287.5675,490.9948,287.56787,490.99487C287.56833,490.9949,287.5684,490.99496,287.56873,490.9954C287.56912,490.9959,287.5692,490.99594,287.5694,490.99573C287.56955,490.99554,287.5696,490.99365,287.56946,490.99338C287.56934,490.99313,287.56885,490.99265,287.56873,490.99265C287.56854,490.99265,287.5685,490.9925,287.56848,490.9919C287.56845,490.99164,287.56836,490.9912,287.56827,490.991C287.56793,490.9902,287.5675,490.9874,287.5676,490.98654C287.56766,490.98578,287.56796,490.9847,287.56824,490.98425C287.5687,490.98343,287.56915,490.98285,287.56934,490.98282C287.57053,490.9826,287.5709,490.98257,287.57233,490.98264L287.57388,490.9827L287.57443,490.98242C287.57538,490.98193,287.57687,490.98053,287.5785,490.97852C287.579,490.97794,287.57956,490.97723,287.57974,490.97702C287.57993,490.9768,287.58017,490.9765,287.58032,490.97632L287.58057,490.976L287.58133,490.97632C287.58176,490.9765,287.5824,490.97668,287.5828,490.97675C287.58398,490.97693,287.5865,490.97678,287.58792,490.97638C287.58807,490.97635,287.58862,490.97623,287.58908,490.9761C287.58957,490.976,287.59045,490.97577,287.591,490.97556C287.59158,490.97534,287.59232,490.9751,287.5926,490.97504C287.5931,490.9749,287.59378,490.97485,287.59378,490.97495C287.59378,490.9751,287.59293,490.97647,287.59262,490.97684C287.59158,490.97812,287.59058,490.97894,287.58932,490.97958C287.5886,490.97995,287.5873,490.98093,287.58682,490.98148C287.58664,490.9817,287.5864,490.98206,287.58627,490.98233C287.58606,490.98276,287.58603,490.9829,287.58603,490.98376C287.58603,490.985,287.58612,490.98526,287.58688,490.98672C287.588,490.98883,287.58804,490.98892,287.58823,490.9898C287.5883,490.99017,287.58838,490.99072,287.58844,490.991C287.58853,490.99142,287.58853,490.99155,287.5884,490.99194C287.58817,490.99268,287.58813,490.9935,287.5883,490.9939C287.5884,490.99414,287.58844,490.99435,287.58838,490.9946C287.58835,490.99493,287.58835,490.995,287.58856,490.99512C287.58878,490.99527,287.58896,490.99524,287.58932,490.995C287.58945,490.9949,287.58966,490.9948,287.5898,490.99478C287.59003,490.99472,287.5901,490.99478,287.59042,490.99515C287.59116,490.99603,287.59195,490.99628,287.5945,490.99637C287.59732,490.99646,287.5979,490.99643,287.59866,490.9962C287.59903,490.99606,287.59946,490.99597,287.5996,490.99597C287.5998,490.99597,287.6,490.9959,287.60013,490.99582C287.60028,490.99573,287.60034,490.99573,287.6008,490.99603C287.60107,490.99625,287.6014,490.99646,287.60156,490.99652C287.60184,490.99667,287.6021,490.99664,287.60205,490.99646C287.60196,490.99625,287.60208,490.99622,287.6023,490.99637C287.60248,490.9965,287.60254,490.9965,287.6026,490.9964C287.60266,490.9963,287.6027,490.99615,287.6027,490.99603C287.6027,490.99557,287.6025,490.99527,287.6019,490.99466C287.60132,490.99408,287.60117,490.99387,287.60138,490.99387C287.6015,490.99387,287.60147,490.99356,287.60135,490.9934C287.6013,490.99332,287.60098,490.99316,287.60068,490.9931C287.60022,490.99298,287.60004,490.99298,287.59976,490.99307C287.59937,490.9932,287.59866,490.99323,287.5983,490.99316C287.59818,490.9931,287.59787,490.99316,287.59756,490.99326L287.59708,490.99344L287.59647,490.99316C287.59558,490.9928,287.59552,490.99277,287.59467,490.99197C287.59262,490.9901,287.59232,490.9896,287.59158,490.98688C287.5912,490.98535,287.59116,490.98502,287.59152,490.9842C287.59177,490.98367,287.59192,490.98358,287.59305,490.9832C287.5942,490.9828,287.59555,490.98245,287.59726,490.98212C287.59814,490.98193,287.5992,490.98172,287.5996,490.9816C287.60004,490.98148,287.60083,490.9813,287.60138,490.98117C287.6025,490.981,287.60355,490.98065,287.60483,490.9801C287.60532,490.9799,287.60577,490.9797,287.60583,490.9797C287.60608,490.9797,287.60678,490.97925,287.60712,490.97888C287.60776,490.97815,287.60812,490.97668,287.60825,490.9744L287.6083,490.97333L287.60858,490.97336C287.60892,490.97336,287.6093,490.97314,287.6098,490.97272C287.61026,490.9723,287.61038,490.97238,287.61008,490.97293C287.60983,490.9734,287.6097,490.9742,287.6099,490.97437C287.61,490.97446,287.61008,490.97443,287.6103,490.97433C287.61044,490.97427,287.6107,490.97418,287.6108,490.97415C287.61093,490.9741,287.61105,490.9739,287.61118,490.9736C287.61133,490.97327,287.61145,490.9731,287.6117,490.973C287.61203,490.9728,287.61243,490.97223,287.61255,490.97162C287.61258,490.97137,287.6126,490.97086,287.61258,490.9705C287.61252,490.96964,287.61264,490.96863,287.61295,490.96768C287.61307,490.96732,287.6132,490.96667,287.61322,490.96625C287.61328,490.9654,287.61343,490.9648,287.61414,490.9628C287.61493,490.9605,287.615,490.96027,287.61533,490.9577C287.6154,490.957,287.6155,490.9565,287.6156,490.9564C287.6162,490.95554,287.61642,490.95514,287.61658,490.95468C287.6167,490.9542,287.61673,490.9541,287.6166,490.95352C287.61615,490.95108,287.61557,490.94943,287.61453,490.9477C287.614,490.94684,287.614,490.9468,287.614,490.9462C287.614,490.94583,287.6141,490.94528,287.6142,490.94498C287.6145,490.94394,287.61472,490.94257,287.61484,490.94095C287.6149,490.94006,287.6149,490.9398,287.61475,490.939C287.61438,490.9372,287.614,490.93582,287.6137,490.93536C287.61365,490.93527,287.61353,490.93497,287.61343,490.9347C287.61325,490.93417,287.6127,490.9331,287.6125,490.93283C287.6124,490.93274,287.6122,490.9325,287.61206,490.93228C287.6117,490.9317,287.6105,490.93054,287.6096,490.92987C287.6091,490.9295,287.6088,490.92923,287.60876,490.9291C287.60876,490.92896,287.60867,490.9289,287.60846,490.92886C287.6083,490.92883,287.60797,490.92862,287.60767,490.9284C287.6074,490.9282,287.6071,490.92798,287.607,490.92795C287.60684,490.92783,287.60684,490.92783,287.6071,490.92764C287.60754,490.92725,287.60727,490.92697,287.60672,490.92728L287.60635,490.9275L287.606,490.92722C287.60538,490.9268,287.60532,490.92673,287.6056,490.92642C287.60587,490.92618,287.6059,490.9259,287.60568,490.9259C287.6055,490.9259,287.60504,490.92615,287.6048,490.92636L287.6046,490.92654L287.60416,490.92633C287.60388,490.92624,287.60367,490.92612,287.60367,490.92612C287.6036,490.92606,287.60382,490.9257,287.6042,490.92526C287.60455,490.92477,287.60458,490.92468,287.60437,490.92468C287.6042,490.92468,287.60364,490.9251,287.6032,490.92557C287.6029,490.92587,287.6029,490.9259,287.60257,490.92578C287.6024,490.92572,287.6022,490.92563,287.60217,490.92557C287.60214,490.9255,287.60223,490.9252,287.60236,490.92493C287.60263,490.92432,287.60263,490.92422,287.60248,490.92422C287.60236,490.92422,287.6017,490.92487,287.6017,490.925C287.6017,490.92505,287.60165,490.92514,287.6016,490.92523C287.60147,490.92535,287.60144,490.92538,287.60098,490.92526C287.60052,490.92517,287.6005,490.92514,287.6005,490.9249C287.6005,490.92465,287.60056,490.92432,287.6007,490.92383C287.60083,490.9235,287.6005,490.92358,287.6001,490.924 Z M287.61057,490.966C287.61057,490.96606,287.61035,490.96658,287.61008,490.96713C287.60983,490.96768,287.60947,490.96844,287.6093,490.9688C287.60895,490.9697,287.60837,490.97037,287.60797,490.97037C287.6077,490.97037,287.60767,490.97034,287.60748,490.9699C287.6074,490.96967,287.60718,490.9692,287.60703,490.96893C287.60684,490.96848,287.6068,490.96838,287.6069,490.96832C287.60754,490.96783,287.60797,490.96744,287.60837,490.96692C287.6086,490.96658,287.6092,490.96597,287.60962,490.96555L287.6104,490.96478L287.61047,490.9653C287.6105,490.9656,287.61053,490.9659,287.61057,490.966 Z M287.6093,490.971C287.6093,490.97125,287.60834,490.9723,287.60822,490.97217C287.6082,490.97214,287.60815,490.972,287.6081,490.9718C287.60803,490.97153,287.60803,490.97147,287.60825,490.9714C287.6084,490.97134,287.60864,490.97122,287.6088,490.97116C287.6091,490.97098,287.6093,490.97092,287.6093,490.971 Z"/> </g> </g> </svg>