<?xml version="1.0" encoding="utf-8"?>
<!-- Generator: Adobe Illustrator 15.1.0, SVG Export Plug-In . SVG Version: 6.00 Build 0)  -->
<!DOCTYPE svg PUBLIC "-//W3C//DTD SVG 1.1//EN" "http://www.w3.org/Graphics/SVG/1.1/DTD/svg11.dtd">
<svg version="1.1" id="Layer_1" xmlns="http://www.w3.org/2000/svg" xmlns:xlink="http://www.w3.org/1999/xlink" x="0px" y="0px"
	 width="792px" height="612px" viewBox="0 0 792 612" enable-background="new 0 0 792 612" xml:space="preserve">
<path fill-rule="evenodd" clip-rule="evenodd" stroke="#000000" stroke-width="2.9999" stroke-linecap="round" stroke-linejoin="round" stroke-miterlimit="22.9256" d="
	M624.693,322.36c27.988-0.958,64.965,1.417,84.098,15.628s23.904,41.807,8.043,69.918c-15.86,28.112-52.354,56.739-47.325,56.868
	c5.029,0.129,48.099-29.788,70.407-56.609c22.309-26.822,19.924-63.526,5.74-84.03c-22.762-32.901-102.844-44.794-140.889-58.906
	c-9.818-3.642-17.982-7.889-27.156-12.673c-0.637-0.581-1.237-1.165-1.799-1.756c-5.165-5.44-7.005-11.473-8.538-16.788
	c-1.532-5.315-2.759-9.912-3.984-15.734c-1.226-5.823-2.451-12.871-3.371-18.847c-0.919-5.976-1.532-10.88-3.831-16.855
	c-2.298-5.976-6.282-13.024-8.428-18.541c-2.145-5.516-2.451-9.5-6.282-14.763s-11.185-11.803-16.854-17.472
	s-9.653-10.468-15.477-13.634c-5.823-3.165-13.484-4.697-20.686-7.456c-7.202-2.758-13.944-6.742-22.525-8.428
	c-8.581-1.685-19-1.072-27.275-1.226c-8.273-0.153-14.403-1.072-22.218,0.46s-17.314,5.516-26.508,7.355
	c-9.194,1.838-18.081,1.532-25.896,3.524c-7.814,1.992-14.556,6.282-23.291,9.754s-19.46,6.125-27.428,10.568
	c-7.968,4.443-13.178,10.678-19.154,16.094c-5.976,5.415-12.718,10.012-17.161,16.908c-4.444,6.895-6.589,16.089-9.375,21.322
	c-2.787,5.233-6.214,6.505-10.979,2.8c-3.268-2.541-7.164-7.423-11.208-11.78c-5.316-8.554-11.133-18.55-18.95-27.507
	c-11.033-12.642-26.049-23.215-37.771-29.344c-11.722-6.129-20.15-7.814-25.743-7.048c-5.593,0.766-8.351,3.984-11.875,4.75
	c-3.525,0.766-7.815-0.919-11.952-1.685c-4.138-0.766-8.122-0.613-14.021,2.298c-5.899,2.912-13.714,8.581-21.759,12.642
	c-8.044,4.061-16.318,6.512-24.44,7.968c-8.122,1.456-16.089,1.916-22.79,3.065c-6.702,1.149-12.136,2.988-15.431,5.976
	c-3.294,2.988-4.449,7.125-4.03,10.65c0.419,3.524,2.411,6.435,4.786,10.496s5.133,9.271,6.283,9.96
	c1.149,0.689,0.689-3.141,0.689-5.899c0-2.758,0.459-4.443,2.145-3.754c1.686,0.69,4.597,3.754,6.283,5.516
	c1.686,1.763,2.145,2.222,2.451,0.766c0.307-1.456,0.46-4.827,0.613-7.202c0.153-2.375,0.307-3.754,1.073-3.524
	c0.766,0.23,2.145,2.069,3.448,3.754s2.528,3.218,3.141,3.141c0.613-0.076,0.613-1.761,0.69-3.371
	c0.077-1.609,0.23-3.141,1.456-2.375c1.226,0.766,3.524,3.831,4.673,4.367c1.149,0.537,1.149-1.455,1.456-3.141
	s0.919-3.064,1.916-3.601c0.996-0.536,2.375-0.229,3.678-0.307c1.302-0.076,2.527-0.536,5.286-1.609
	c2.758-1.072,7.048-2.758,11.492-4.214c4.443-1.456,9.04-2.681,13.254-2.834c4.213-0.153,8.044,0.766,8.428,1.992
	c0.382,1.227-2.682,2.758-6.666,4.673c-3.984,1.916-8.887,4.214-12.412,6.589c-3.524,2.375-5.669,4.827-7.661,6.742
	c-1.992,1.916-3.831,3.294-5.133,3.294c-1.303,0-2.069-1.378-3.046-2.413c-0.977-1.034-2.165-1.724-2.548-1.073
	c-0.383,0.652,0.038,2.643,0.287,4.137s0.326,2.49-0.785,2.261c-1.111-0.23-3.41-1.686-5.19-3.027
	c-1.782-1.341-3.046-2.566-3.333-1.934c-0.287,0.632,0.402,3.122,0.689,5.324c0.287,2.203,0.172,4.118-0.517,4.1
	c-0.689-0.02-1.954-1.973-3.563-4.271c-1.609-2.299-3.563-4.942-4.31-4.521c-0.747,0.421-0.288,3.907,0.134,6.838
	c0.421,2.931,0.804,5.306,0.057,5.784c-0.747,0.479-2.624-0.938-4.731-2.433c-2.107-1.494-4.444-3.064-5.249-3.007
	c-0.804,0.058-0.077,1.743,0.537,3.907c0.613,2.165,1.111,4.808,0.977,6.915c-0.134,2.107-0.9,3.677-0.44,5.765
	c0.459,2.088,2.145,4.693,4.271,6.167c2.126,1.475,4.692,1.82,8.14,0.862s7.776-3.218,11.569-6.187
	c3.792-2.968,7.048-6.646,13.197-9.385c6.148-2.739,15.188-4.54,23.195-5.957c8.006-1.417,14.979-2.452,22.831-3.467
	c7.853-1.015,16.586-2.011,25.282-2.05c8.695-0.038,17.354,0.881,24.133,4.903c6.781,4.022,11.684,11.148,17.775,21.567
	c6.091,10.42,13.369,24.134,20.417,34.668c34.034,50.868,14.344,13.001,8.985,50.954c-0.749,5.301-0.1,11.133-4.192,13.791
	c-4.092,2.658-12.926,2.142-19.975,0.728c-7.05-1.415-12.315-3.727-16.628-7.055c-4.314-3.328-7.678-7.671-11.444-11.45
	s-7.938-6.994-12.255-8.534c-4.318-1.541-8.784-1.408-12.182,0.113c-3.399,1.521-5.731,4.43-6.582,7.202
	c-0.851,2.773-0.22,5.409,0.354,7.048c0.575,1.639,1.093,2.281,1.334,1.538c0.241-0.743,0.204-2.872,1.967-4.606
	c1.762-1.735,5.323-3.077,8.441-2.999c3.117,0.078,5.791,1.576,8.967,4.058c3.176,2.482,6.855,5.948,6.919,6.774
	s-3.487-0.987-6.914-1.766c-3.428-0.779-6.733-0.522-9.415,0.346c-2.682,0.868-4.741,2.349-6.399,4.055
	c-1.658,1.706-2.916,3.636-2.346,6.852c0.569,3.217,2.964,7.721,3.496,8.81c0.532,1.088-0.799-1.238-0.449-3.589
	c0.351-2.35,2.383-4.725,5.788-5.628c3.404-0.902,8.179-0.335,12.796,0.671c4.618,1.007,9.078,2.451,9.099,2.727
	c0.021,0.275-4.396-0.619-7.754,0.047c-3.358,0.665-5.658,2.89-6.827,5.133s-1.207,4.505-0.309,7.291
	c0.897,2.787,2.731,6.097,3.35,6.092c0.618-0.005,0.019-3.326,0.632-6.145c0.613-2.817,2.437-5.134,5.603-6.082
	c3.166-0.948,7.674-0.53,13.428,1.112s12.753,4.511,20.895,6.437c8.142,1.927,17.425,2.912,22.851,2.79
	c5.426-0.121,6.993-1.351,11.745-6.855c14.155-16.397,19.568-31.257,31.187-1.483c2.454,6.287,4.986,10.863,7.458,14.544
	c2.471,3.682,4.88,6.469,4.624,11.88c-0.256,5.411-3.178,13.447-7.211,18.338s-9.177,6.634-14.496,7.551
	c-5.318,0.917-10.81,1.006-16.092,1.757c-5.283,0.751-10.355,2.163-14.177,4.696s-6.392,6.188-7.211,9.82
	c-0.819,3.632,0.112,7.242,1.822,9.585c1.709,2.343,4.198,3.418,5.855,3.939c1.656,0.523,2.48,0.492,2.03-0.146
	c-0.451-0.638-2.177-1.883-2.509-4.334c-0.333-2.45,0.728-6.105,2.659-8.555c1.931-2.449,4.732-3.692,8.622-4.747
	c3.891-1.056,8.87-1.923,9.57-1.479c0.7,0.444-2.88,2.2-5.558,4.477c-2.677,2.278-4.453,5.077-5.365,7.744
	c-0.912,2.669-0.96,5.204-0.589,7.554c0.372,2.35,1.164,4.513,4.08,5.985c2.917,1.472,7.957,2.253,9.146,2.479
	c1.19,0.227-1.47-0.102-3.141-1.791s-2.354-4.739-1.037-8.005c1.317-3.267,4.633-6.749,8.206-9.843
	c3.572-3.094,7.402-5.798,7.635-5.65c0.233,0.148-3.13,3.148-4.61,6.235c-1.48,3.088-1.078,6.262,0.018,8.541
	c1.096,2.281,2.883,3.667,5.652,4.618c2.769,0.951,6.518,1.467,6.884,0.969c0.366-0.497-2.651-2.009-4.54-4.188
	c-1.888-2.18-2.649-5.027-1.511-8.131c1.138-3.103,4.174-6.461,8.938-10.083c4.764-3.621,11.254-7.507,17.675-12.869
	c6.422-5.363,12.774-12.204,15.928-16.621c3.154-4.416,3.109-6.407,1.55-13.511c-0.308-1.406-0.676-3.013-1.093-4.761
	c0.974,0.34-3.792-1.058,3.006,0.974s14.469,3.598,28.873,4.9c16.098,1.455,18.666,12.123,21.437,31.442
	c1.854,12.929,10.119,22.067,17.696,31.146c7.576,9.077,14.465,18.094,18.016,23.74c3.551,5.648,3.765,7.925,0.973,12.439
	c-2.793,4.514-8.593,11.262-13.632,16.332c-5.038,5.068-9.315,8.458-15.169,10.962c-5.854,2.503-13.284,4.12-19.505,5.165
	c-6.221,1.044-11.232,1.515-14.51,3.316c-3.278,1.802-4.821,4.934-5.45,8.032c-0.627,3.098-0.34,6.161,1.577,5.892
	c1.917-0.268,5.462-3.868,9.741-5.904c4.278-2.036,9.289-2.507,10.118-2.24c0.83,0.267-2.523,1.271-5.332,2.744
	c-2.808,1.473-5.072,3.414-5.778,6.786c-0.707,3.372,0.146,8.174,1.638,8.459c1.49,0.284,3.621-3.948,8.671-6.439
	s13.023-3.24,15.369-3.053c2.344,0.188-0.939,1.313-3.092,3.762c-2.153,2.448-3.177,6.221-3.051,9.397
	c0.125,3.176,1.403,5.757,2.165,6.23c0.763,0.474,1.012-1.158,1.929-2.709c0.916-1.551,2.5-3.021,6.601-5.844
	c4.1-2.822,10.716-6.996,16.781-9.697c6.065-2.701,11.58-3.93,13.851-6.044c2.272-2.114,1.301-5.113,2.972-9.344
	c1.67-4.23,5.982-9.69,9.914-14.312c3.932-4.62,7.482-8.4,10.264-13.063s4.793-10.205,4.282-14.443
	c-0.512-4.237-3.544-7.169-7.859-16.961c-4.315-9.791-10.135-17.484-9.569-35.117c0.744-23.189-1.06-31.318,19.219-34.008
	c8.331-1.104,6.686,3.579,10.806,12.332c4.759,10.109,7.231,14.299,9.623,18.957s4.699,9.785,8.268,14.191
	c3.567,4.404,8.395,8.087,15.825,11.353c7.431,3.265,17.464,6.113,25.725,8.439s14.749,4.128,19.431,7.479
	c4.681,3.353,7.555,8.252,8.639,14.297c1.085,6.045,0.383,13.234-1.826,19.071c-2.208,5.838-5.924,10.323-9.948,13.344
	c-4.024,3.021-8.358,4.577-12.384,5.76s-7.741,1.991-10.365,4.019s-4.157,5.273-4.731,8.946c-0.573,3.674-0.188,7.773,0.242,8.078
	c0.431,0.304,0.907-3.188,3.023-5.11c2.118-1.922,5.876-2.275,9.995-3.064c4.12-0.789,8.601-2.015,8.85-1.809
	c0.249,0.207-3.732,1.845-6.39,5.369c-2.655,3.523-3.985,8.934-2.529,12.818c1.457,3.884,5.7,6.243,6.979,6.41
	s-0.404-1.858,0.412-4.175c0.816-2.317,4.133-4.927,7.353-6.724c3.221-1.796,6.346-2.779,9.168-4.538
	c2.821-1.759,5.341-4.293,5.746-3.643c0.406,0.651-1.301,4.489-2.65,7.546c-1.351,3.057-2.343,5.332-1.416,7.859
	c0.927,2.526,3.773,5.304,5.081,5.468c1.309,0.165,1.078-2.283,1.866-4.282c0.789-1.999,2.597-3.548,5.19-5.285
	c2.595-1.736,5.975-3.663,7.62-5.714c1.646-2.051,1.557-4.225,1.999-6.852s1.417-5.705,3.316-9.331
	c1.9-3.625,4.725-7.798,5.589-11.439c0.864-3.644-0.232-6.758-2.16-10.138c-1.926-3.381-4.681-7.028-6.354-13.822
	c-1.673-6.793-2.262-16.734-2.733-23.583s-0.825-10.607-2.256-13c-1.432-2.395-3.94-3.422-7.6-4.457s-8.467-2.076-11.753-4.64
	c-3.285-2.563-5.049-6.649-7.624-10.831c-2.576-4.181-5.966-8.457-9.044-11.271c-3.08-2.813-5.85-4.161-9.208-5.052
	c-3.357-0.891-7.305-1.324-7.486-3.261c-0.183-1.936,3.401-5.374,7.028-13.24c7.385-16.02,0.77-20.477,17.411-21.8
	c11.568-0.919,20.149-1.686,33.94-4.214C577.705,327.609,596.705,323.318,624.693,322.36z"/>
</svg>
