<svg version="1.1" id="Layer_1" xmlns="http://www.w3.org/2000/svg" xmlns:xlink="http://www.w3.org/1999/xlink" x="0px" y="0px"
	  viewBox="0 0 792 612" enable-background="new 0 0 792 612" xml:space="preserve">
<path fill="currentColor" fill-rule="evenodd" clip-rule="evenodd" stroke="currentColor" stroke-width="3" stroke-linecap="round" stroke-linejoin="round" stroke-miterlimit="22.9256" d="
	M183.271,416.621c1.566,3.94,2.48,7.931,2.579,13.384c0.142,7.874-1.419,18.8-4.044,28.306c-2.625,9.507-6.314,17.595-9.364,23.625
	c-3.051,6.03-5.462,10.003-5.179,12.061c0.283,2.057,3.263,2.198,8.584,2.554c5.321,0.354,12.982,0.922,18.02,1.135
	s7.449,0.071,8.371-1.773c0.922-1.845,0.355-5.392,1.135-9.506c0.78-4.115,2.909-8.798,5.959-17.949
	c3.05-9.152,7.023-22.772,9.506-29.441s3.477-6.385,5.321-3.974c1.844,2.412,4.54,6.953,7.591,13.479
	c3.05,6.527,6.456,15.041,8.229,20.433c1.774,5.392,1.916,7.661,0.639,11.351s-3.973,8.797-5.25,11.422
	c-1.277,2.625-1.135,2.767,0.284,3.264c1.418,0.496,4.115,1.348,8.3,1.915s9.861,0.852,14.188,0.426s7.307-1.561,9.01-3.121
	c1.703-1.562,2.128-3.548,2.554-6.598c0.425-3.051,0.852-7.166-0.284-11.99c-1.135-4.824-3.831-10.357-5.675-16.813
	s-2.837-13.834-3.973-19.51c-1.135-5.675-2.412-9.647-3.05-12.911s-0.639-5.817,0.639-7.378c1.276-1.562,3.831-2.129,11.138-1.845
	c7.307,0.283,19.368,1.419,30.931,1.135c11.564-0.283,22.631-1.986,29.726-2.341c7.094-0.354,10.216,0.639,12.202,3.547
	c1.986,2.909,2.838,7.733,3.263,15.04c0.426,7.308,0.426,17.098,0,24.263c-0.425,7.165-1.277,11.706-3.05,15.892
	s-4.47,8.017-6.811,11.492c-2.341,3.477-4.327,6.598-3.689,8.159c0.639,1.561,3.902,1.561,9.932,1.702
	c6.03,0.142,14.828,0.426,20.929,0.426s9.506-0.284,11.28-1.915c1.773-1.632,1.916-4.611,1.49-6.811
	c-0.426-2.2-1.418-3.618-1.276-9.861c0.142-6.243,1.418-17.311,3.192-26.533s4.044-16.601,5.676-22.701
	c1.632-6.102,2.625-10.926,3.618-14.048c0.994-3.121,1.987-4.54,4.47-2.908s6.456,6.314,11.776,12.273
	c5.321,5.959,11.99,13.195,17.523,19.367s9.932,11.28,12.698,16.246c2.767,4.967,3.902,9.79,3.264,14.827s-3.051,10.287-4.54,14.544
	c-1.49,4.256-2.058,7.52,1.063,9.223c3.122,1.702,9.933,1.845,17.735,1.205c7.805-0.638,16.602-2.057,21.283-5.675
	c4.683-3.618,5.251-9.436,4.47-16.529c-0.78-7.095-2.908-15.466-6.03-24.405c-3.121-8.938-7.235-18.445-10.428-26.816
	c-3.193-8.371-5.463-15.607-8.159-21.212c-2.695-5.604-5.817-9.577-7.804-13.125c-1.986-3.547-2.838-6.668,0.993-10.216
	c3.831-3.547,12.345-7.52,21.496-9.151s18.942-0.922,33.911,0.922c14.969,1.845,35.117,4.824,54.331,9.889
	c19.215,5.064,37.495,12.214,56.295,19.237s38.119,13.921,57.037,18.198c18.918,4.278,37.434,5.935,51.764,6.077
	c14.331,0.142,24.477-1.232,27.704-3.279c3.229-2.047-0.461-4.767-8.868-6.717c-1.078-0.251-2.234-0.488-3.459-0.718
	c-0.458-0.41-0.922-0.787-1.028-1.317c-0.242-1.216,1.396-3.236,3.774-5.95c2.38-2.712,5.501-6.118,8.978-11.297
	c3.476-5.179,7.307-12.131,9.081-17.948c1.772-5.817,1.489-10.5,0.283-10.43c-1.206,0.071-3.334,4.896-5.746,9.081
	s-5.108,7.733-9.933,12.132s-11.776,9.648-19.162,13.042s-15.205,4.931-20.313,4.576c-5.108-0.354-7.505-2.602-6.079-5.428
	c1.427-2.826,6.677-6.231,12.494-10.843s12.202-10.429,18.091-17.735c5.889-7.308,11.28-16.104,13.834-23.199
	c2.554-7.094,2.271-12.485-0.142-11.067c-2.412,1.419-6.953,9.649-13.055,17.098c-6.101,7.449-13.763,14.118-23.481,20.503
	s-21.496,12.486-30.857,14.749c-15.03,3.636-23.725-0.532-35.564-8.008c-0.402-0.379-0.773-0.791-0.977-1.279
	c-0.392-0.936-0.171-2.15,1.201-2.855c1.373-0.705,3.896-0.9,6.229-1.708s4.479-2.226,5.34-4.685
	c0.86-2.458,0.437-5.957,0.539-9.283c0.104-3.326,0.734-6.479,1.046-8.836s0.304-3.918-1.775-3.9
	c-2.078,0.019-6.229,1.615-9.19,2.218c-2.962,0.604-4.735,0.214-7.194,0.542c-2.458,0.328-5.601,1.375-7.488,3.107
	c-1.887,1.732-2.519,4.15-2.792,6.11c-0.272,1.959-0.188,3.46-0.854,4.104c-0.666,0.645-2.085,0.431-4.405-0.72
	c-2.321-1.15-5.544-3.238-7.354-5.58c-1.809-2.341-2.204-4.936-1.641-6.028c0.563-1.092,2.087-0.683,4.588-1.197
	c2.501-0.514,5.979-1.952,8.409-4.293s3.811-5.586,4.448-10.791s0.53-12.37,0.974-17.727c0.443-5.355,1.438-8.903,0.302-10.251
	c-1.135-1.348-4.398-0.497-8.974-0.586c-4.577-0.089-10.466-1.117-17.063-0.798s-13.905,1.986-17.488,4.895
	c-3.582,2.909-3.44,7.06-5.146,8.387c-1.705,1.328-5.257-0.166-8.459-3.234c-3.201-3.068-6.052-7.712-6.846-11.585
	c-0.794-3.874,0.468-6.978,3.908-8.68c3.441-1.703,9.061-2.003,14.566-4.85c5.505-2.846,10.896-8.238,12.894-16.069
	c1.996-7.831,0.598-18.1,1.459-27.066c0.86-8.966,3.982-16.627,3.45-19.536s-4.718-1.064-9.543-0.213
	c-4.824,0.851-10.286,0.709-16.849,0.851s-14.224,0.567-21.506,1.127c-7.281,0.559-14.184,1.251-19.558,3.699
	c-5.373,2.447-9.219,6.65-11.798,11.908s-3.892,11.572-7.155,12.211c-3.264,0.638-8.478-4.398-11.581-8.69
	s-4.097-7.839-2.606-11.103c1.489-3.264,5.462-6.243,8.016-10.003c2.555-3.76,3.689-8.3,4.683-14.046
	c0.993-5.747,1.845-12.699,0.62-25.078c-1.225-12.38-4.525-30.186-5.04-41.714c-0.516-11.528,1.755-16.778-5.127-15.998
	c-6.881,0.78-22.915,7.591-35.666,14.082c-12.751,6.491-22.22,12.663-30.928,20.005s-16.653,15.855-20.483,24.156
	c-3.832,8.3-3.548,16.388-5.038,20.502c-1.489,4.115-4.753,4.256-8.158,3.263c-3.405-0.994-6.952-3.122-8.726-5.675
	c-1.773-2.554-1.773-5.534-0.922-9.01c0.851-3.477,2.554-7.449,3.476-11.493c0.922-4.044,1.064-8.159,0.568-12.273
	c-0.497-4.115-1.632-8.229-3.051-13.408c-1.419-5.179-3.121-11.422-3.831-18.02c-0.709-6.598-0.425-13.55-0.284-19.438
	c0.142-5.889,0.142-10.713-1.206-12.77c-1.348-2.057-4.044-1.348-8.584,0.355c-4.54,1.702-10.925,4.398-21.708,13.479
	c-10.783,9.081-25.965,24.546-35.046,37.174s-12.061,22.418-12.77,29.158c-0.709,6.739,0.851,10.429,2.363,15.119
	c1.512,4.69,2.976,10.381,0.493,13.432c-2.483,3.05-8.913,3.46-12.27,2.175c-3.356-1.285-3.64-4.264-4.066-7.599
	c-0.426-3.334-0.993-7.023-2.767-10.925c-1.774-3.902-4.753-8.017-9.72-11.635c-4.966-3.618-11.918-6.74-16.671-11.067
	c-4.753-4.327-7.308-9.861-9.081-14.401c-1.774-4.54-2.767-8.087-6.598-6.03c-3.832,2.057-10.5,9.719-15.183,18.232
	c-4.682,8.513-7.378,17.877-9.151,27.526c-1.774,9.648-2.625,19.581-2.164,26.391c0.461,6.811,2.234,10.5,4.505,13.692
	c2.27,3.192,5.037,5.888,6.775,8.655c1.738,2.767,2.447,5.604,1.797,8.094c-0.65,2.49-2.66,4.631-5.107,6.511
	s-5.333,3.499-6.882,3.279c-1.549-0.22-1.762-2.277-2.01-4.76c-0.249-2.483-0.532-5.392-2.271-7.768
	c-1.738-2.377-4.931-4.222-8.974-5.676c-4.044-1.455-8.939-2.519-13.621-5.037c-4.682-2.519-9.152-6.491-12.131-9.506
	c-2.979-3.016-4.469-5.073-5.995-5.108c-1.525-0.036-3.086,1.951-5.214,8.903c-2.129,6.953-4.824,18.871-5.499,28.732
	c-0.674,9.861,0.674,17.665,2.98,22.773s5.569,7.52,8.123,9.648c2.554,2.128,4.398,3.973,3.902,6.739
	c-0.25,1.393-1.094,3.02-2.324,4.636c-2.601,1.999-5.184,3.892-7.696,5.572c-1.599,1.069-3.169,2.053-4.754,2.941
	c-1.015,0.275-1.962,0.428-2.788,0.438c-2.839,0.036-4.241-1.596-3.807-3.795c0.434-2.199,2.704-4.966,3.697-7.856
	c0.994-2.892,0.709-5.906-0.141-8.248c-0.85-2.341-2.267-4.009-4.394-5.588c-2.127-1.579-4.965-3.068-6.916-4.842
	c-1.951-1.774-3.016-3.831-4.186-4.328c-1.171-0.497-2.448,0.567-4.469,2.696c-2.022,2.128-4.789,5.321-6.704,7.91
	c-1.916,2.59-2.98,4.576-3.405,6.633c-0.426,2.058-0.213,4.186,0.496,6.03c0.709,1.845,1.916,3.405,3.253,5.587
	c1.337,2.183,2.807,4.985,1.376,6.694c-1.432,1.708-5.763,2.322-8.823,2.347c-1.821,0.015-11.564-0.323-11.492-2.08
	c0.037-0.926,1.383-2.596,1.878-4.266c0.494-1.671,0.138-3.342-0.892-5.183s-2.734-3.852-3.938-5.331
	c-1.205-1.479-1.91-2.428-2.707-2.018c-0.796,0.41-1.684,2.18-2.826,3.807c-1.143,1.628-2.542,3.114-3.411,4.739
	c-0.87,1.625-1.21,3.389-1.051,4.866c0.159,1.478,0.818,2.669,0.281,3.263c-0.069,0.076-0.159,0.144-0.264,0.202
	c-0.413-0.021-0.821-0.041-1.224-0.06c-6.147-0.474-11.789,0.028-17.692,1.761c-6.527,1.915-12.627,5.32-16.388,8.158
	c-3.76,2.838-5.179,5.107-8.797,8.017c-3.618,2.909-9.435,6.456-13.55,8.939c-4.115,2.482-6.527,3.901-8.442,7.591
	c-1.916,3.688-3.334,9.647-4.044,13.124s-0.709,4.47,1.135,5.321c1.845,0.851,5.534,1.56,9.223,1.915
	c3.688,0.354,7.378,0.354,10.641-0.639c3.264-0.993,6.101-2.979,10.358-3.689c4.256-0.709,9.932-0.142,15.465-0.922
	c5.534-0.78,10.926-2.908,15.324-4.327c4.398-1.419,7.804-2.128,11.918-2.199c4.115-0.071,8.939,0.496,18.587,3.618
	c9.648,3.121,24.121,8.797,33.26,14.622c9.139,5.826,12.945,11.804,15.793,17.242C180.347,411.63,181.708,414.688,183.271,416.621z"
	/>
</svg>
