<?xml version="1.0" standalone="no"?>
<!DOCTYPE svg PUBLIC "-//W3C//DTD SVG 20010904//EN"
 "http://www.w3.org/TR/2001/REC-SVG-20010904/DTD/svg10.dtd">
<svg version="1.0" xmlns="http://www.w3.org/2000/svg"
  viewBox="0 0 1077.000000 1280.000000"
 preserveAspectRatio="xMidYMid meet">
<metadata>
Created by potrace 1.15, written by Peter Selinger 2001-2017
</metadata>
<g transform="translate(0.000000,1280.000000) scale(0.100000,-0.100000)"
fill="currentColor" stroke="none">
<path d="M8816 12765 c-262 -114 -612 -354 -877 -601 -817 -762 -1404 -1964
-1526 -3125 l-16 -159 -46 0 c-60 0 -85 -18 -116 -85 -32 -66 -67 -85 -157
-85 -72 0 -99 14 -148 75 -44 55 -78 75 -127 75 -28 0 -43 4 -43 13 0 6 -7 73
-16 147 -129 1120 -732 2209 -1599 2889 -106 83 -337 236 -454 301 -168 92
-332 164 -527 230 -252 86 -256 66 -26 -133 170 -147 430 -404 564 -557 610
-700 1024 -1533 1183 -2380 33 -171 61 -407 67 -545 l2 -59 -34 -7 c-24 -5
-48 -23 -80 -59 l-45 -52 -90 -9 c-50 -5 -100 -14 -112 -19 -19 -8 -35 1 -108
61 -621 507 -1313 878 -1991 1068 -441 123 -793 167 -1268 159 -281 -6 -326
-12 -326 -47 0 -16 32 -30 193 -84 886 -299 1697 -762 2506 -1430 l123 -102
-48 -8 c-189 -31 -241 -41 -339 -67 -61 -16 -156 -45 -212 -64 l-102 -36 -253
0 c-266 0 -448 -14 -651 -50 -196 -34 -430 -100 -485 -136 -39 -26 -11 -41
143 -74 152 -33 457 -111 518 -132 l38 -14 -63 -51 c-213 -173 -469 -476 -619
-733 -29 -50 -78 -110 -149 -180 -294 -293 -527 -726 -615 -1141 -14 -68 -30
-142 -34 -164 -5 -22 -25 -80 -46 -129 -91 -218 -128 -459 -124 -816 2 -190
-1 -269 -14 -350 -56 -361 -61 -831 -12 -1122 13 -70 13 -96 3 -135 -6 -26
-13 -131 -14 -233 l-3 -185 -41 -119 c-71 -205 -113 -419 -126 -641 -6 -108 2
-235 27 -427 22 -167 -12 -267 -164 -483 -84 -119 -147 -229 -147 -257 0 -8
-16 -32 -36 -54 -64 -71 -154 -287 -154 -372 0 -12 10 -27 22 -33 33 -18 247
-5 339 20 42 11 104 20 142 20 36 -1 70 2 75 5 6 3 15 -1 23 -10 21 -26 47
-35 127 -44 99 -11 227 3 262 28 36 27 165 36 198 14 20 -13 56 -16 186 -16
139 -1 166 2 189 17 15 9 27 24 27 33 0 9 5 13 13 10 6 -3 19 -9 28 -12 9 -3
20 -19 23 -36 l6 -30 137 6 c76 4 174 14 219 22 77 15 85 14 175 -6 52 -12
109 -28 127 -37 81 -36 267 -25 369 23 41 19 68 24 130 24 50 0 84 -5 92 -12
9 -10 58 -13 179 -12 170 0 212 8 212 40 0 11 7 13 28 7 15 -4 82 -8 149 -8
159 0 164 4 135 102 -24 79 -81 170 -141 228 -25 24 -41 48 -41 63 0 48 -57
120 -112 141 -34 13 -73 74 -109 171 -41 113 -53 216 -45 401 3 87 9 231 12
319 l7 161 76 -75 c77 -76 168 -150 208 -168 11 -6 36 -30 54 -55 38 -49 105
-104 194 -157 33 -20 107 -83 165 -140 141 -139 285 -232 465 -299 164 -62
394 -106 548 -107 46 0 77 -4 77 -10 0 -6 -12 -34 -27 -63 -14 -29 -27 -70
-29 -92 -1 -25 -16 -63 -38 -99 -45 -75 -78 -174 -74 -223 l3 -38 55 -3 c58
-4 278 16 295 26 18 11 99 0 110 -14 34 -47 268 -44 335 5 37 26 101 34 137
16 38 -19 334 -16 341 3 2 8 37 12 115 12 62 0 129 3 149 6 35 6 36 7 31 43
-7 44 -50 157 -73 191 -9 14 -20 42 -23 64 -8 49 -30 82 -70 106 -77 45 -92
80 -108 252 -22 230 0 399 104 789 54 200 89 362 102 467 8 59 7 59 94 19 98
-46 147 -123 217 -337 68 -211 89 -248 206 -360 122 -116 193 -219 300 -435
l80 -160 -7 -110 c-5 -60 -9 -148 -10 -195 -2 -50 -9 -101 -18 -123 -22 -51
-47 -176 -47 -230 0 -38 3 -46 23 -51 43 -11 213 -6 267 9 30 8 121 17 201 20
124 4 152 2 185 -12 50 -22 335 -26 355 -6 18 18 94 16 109 -2 10 -12 39 -15
146 -15 150 0 229 13 244 40 8 15 16 16 52 9 60 -11 211 -11 242 1 35 13 33
34 -15 130 -30 60 -60 101 -113 153 -40 40 -82 89 -94 109 -27 44 -107 118
-216 201 -115 87 -189 165 -225 239 -20 41 -55 161 -100 348 -103 422 -174
639 -263 801 l-30 55 75 95 c240 298 351 615 334 952 -12 246 -78 519 -199
822 -22 55 -42 106 -45 113 -4 9 20 12 100 12 97 0 109 2 160 29 30 16 69 32
87 36 42 9 110 75 110 106 0 27 -45 105 -74 128 -10 8 -26 31 -36 51 -31 60
-95 135 -159 184 l-60 46 31 68 c16 37 34 71 39 76 5 6 52 3 119 -8 139 -22
165 -15 182 50 15 53 15 53 230 61 l168 6 -23 40 c-32 58 -135 157 -198 191
-30 16 -55 30 -57 31 -2 2 37 114 43 123 6 9 148 25 268 30 l137 7 -45 57
c-52 66 -153 146 -240 189 l-61 30 18 87 c10 48 18 88 18 90 0 1 14 2 32 2 27
0 232 31 308 47 24 5 24 6 -26 51 -59 55 -140 97 -243 127 -40 12 -77 29 -82
37 -12 22 -21 121 -12 133 8 10 69 30 228 75 39 11 84 22 100 26 l30 6 -53 49
c-61 56 -148 100 -244 125 -49 12 -68 21 -68 33 0 9 -3 32 -6 52 l-6 37 103
32 c59 19 136 35 177 38 39 2 72 8 72 12 0 15 -79 89 -122 113 -50 30 -146 57
-201 57 l-39 0 7 63 c4 39 13 67 23 75 64 51 288 137 437 167 44 9 84 20 88
25 30 29 -55 99 -183 149 -93 36 -171 51 -271 51 l-76 0 -5 129 c-4 98 -9 136
-21 155 -34 52 -60 10 -103 -167 -26 -110 -29 -116 -44 -99 -8 11 -27 22 -42
26 -33 8 -41 30 -43 121 -1 39 -4 79 -6 89 -5 25 131 146 336 301 348 262 761
496 1259 711 93 40 174 78 179 83 25 25 -9 31 -186 31 -457 0 -907 -96 -1325
-281 -198 -88 -449 -231 -566 -322 -32 -26 -41 -29 -57 -19 -11 7 -30 10 -43
6 -28 -7 -38 6 -41 53 -2 28 10 49 63 121 248 330 630 718 997 1011 420 336
856 604 1351 831 245 112 278 130 282 152 5 27 -55 32 -211 19 -948 -81 -1894
-467 -2568 -1048 -191 -165 -420 -415 -539 -588 -29 -42 -34 -45 -63 -40 -18
4 -45 1 -61 -5 -36 -13 -59 -6 -76 24 -7 14 -21 27 -32 29 -13 4 -18 12 -15
24 3 10 8 54 12 98 17 212 69 535 126 795 241 1091 749 2099 1457 2890 100
111 134 158 126 172 -9 13 -26 9 -108 -27z m-6885 -10142 c21 -16 39 -35 39
-43 0 -8 -21 -60 -46 -115 -59 -128 -94 -235 -94 -287 0 -25 14 -71 36 -121
l37 -81 -6 -160 c-7 -200 4 -332 50 -606 23 -135 37 -250 37 -310 l1 -95 -62
-123 c-55 -107 -63 -131 -64 -180 l0 -57 -14 43 c-9 29 -36 67 -83 116 l-69
73 -22 114 c-52 283 -52 352 -1 495 70 196 92 298 97 459 4 112 1 177 -11 253
-9 57 -16 122 -16 146 0 51 31 157 88 306 22 58 43 126 47 153 4 26 9 47 12
47 3 0 22 -12 44 -27z m3086 -220 c23 -57 19 -169 -13 -308 -40 -173 -40 -348
0 -573 15 -90 26 -165 24 -167 -7 -7 -116 324 -142 430 -14 55 -30 140 -37
190 -14 105 -7 317 13 390 13 49 14 50 63 61 74 18 75 17 92 -23z"/>
</g>
</svg>
