<?xml version="1.0" encoding="utf-8"?>
<!-- Generator: Adobe Illustrator 15.1.0, SVG Export Plug-In . SVG Version: 6.00 Build 0)  -->
<!DOCTYPE svg PUBLIC "-//W3C//DTD SVG 1.1//EN" "http://www.w3.org/Graphics/SVG/1.1/DTD/svg11.dtd">
<svg version="1.1" id="Layer_1" xmlns="http://www.w3.org/2000/svg" xmlns:xlink="http://www.w3.org/1999/xlink" x="0px" y="0px"
	 width="792px" height="612px" viewBox="0 0 792 612" enable-background="new 0 0 792 612" xml:space="preserve">
<path fill-rule="evenodd" clip-rule="evenodd" stroke="#000000" stroke-width="3" stroke-linecap="round" stroke-linejoin="round" stroke-miterlimit="22.9256" d="
	M36.521,158.695c0.124-4.709,0.731-8.506,4.541-12.027c3.81-3.521,10.822-6.768,21.287-11.578
	c10.464-4.81,24.382-11.183,38.107-15.101c13.726-3.918,27.26-5.381,38.051-4.063c10.791,1.318,18.837,5.418,23.924,11.187
	c5.086,5.769,7.211,13.209,8.426,21.027c1.214,7.819,1.518,16.018,5.302,24.355c3.783,8.338,11.048,16.815,19.689,20.294
	c8.643,3.48,18.663,1.962,28.986,1.734c10.324-0.228,20.952,0.835,32.339,4.023c11.386,3.188,23.533,8.502,34.312,11.69
	s20.192,4.25,29.074,5.617c8.882,1.367,17.232,3.037,26.949,5.77s20.799,6.528,32.566,8.881c11.767,2.354,24.216,3.265,44.562,0.834
	s48.588-8.203,87.457-12.152c38.868-3.948,88.362-6.074,137.476-1.442s97.846,16.021,105.741,20.727
	c7.895,4.707-25.049,2.731-54.121,1.591c-29.073-1.14-54.275-1.443-90.106,3.111c-35.83,4.555-82.288,13.968-120.019,23.913
	c-19.549,5.153-75.02,17.4-84.519,37.24c-3.647,7.619-7.588,20.869-9.604,31.37c-2.016,10.5-2.107,18.249,0.19,27.013
	c2.297,8.764,6.983,18.541,12.404,23.717c5.419,5.178,11.572,5.754,15.939,6.453c4.368,0.699,6.949,1.521,7.541,3.618
	c0.591,2.098-0.807,5.47-0.985,13.741c-0.181,8.272,0.858,21.443,1.501,30.533c0.644,9.091,0.889,14.1,1.553,16.905
	c0.663,2.807,1.743,3.409-0.318,7.442c-2.062,4.032-7.265,11.496-11.056,15.893c-3.793,4.396-6.173,5.728-14.396,6.286
	c-8.223,0.56-22.287,0.347-31.601,0.772c-9.313,0.428-13.876,1.493-17.028,3.739c-3.152,2.246-4.893,5.673-5.847,5.734
	c-0.954,0.063-1.121-3.238-0.572-7.004c0.548-3.766,1.813-7.993,5.474-11.459c3.661-3.466,9.72-6.168,16.632-7.339
	c6.912-1.172,14.678-0.813,18.763-1.015c4.085-0.203,4.491-0.968,3.961-2.11c-0.529-1.144-1.994-2.666-3.697-4.589
	c-1.704-1.923-3.644-4.246-6.714-5.399c-3.071-1.152-7.27-1.134-9.772,0.223c-2.503,1.355-3.311,4.049-3.91,3.587
	c-0.6-0.462-0.991-4.079,1.249-7.672c2.24-3.593,7.112-7.159,11.604-8.127c4.491-0.967,8.601,0.666,12.521,4.432
	c3.919,3.766,7.648,9.663,10.823,10.917c3.176,1.254,5.796-2.135,3.427-13.303c-2.37-11.167-9.73-30.113-17.813-41.962
	c-8.083-11.849-16.887-16.601-26.303-21.344c-9.416-4.742-19.444-9.478-25.808-23.056c-2.298-4.904-5.645-29.451-8.581-29.566
	c-3.042,0.697-6.404,1.288-9.826,2.286c-8.503,2.482-17.374,7.486-21.162,12.117c-3.789,4.631-2.494,8.89,0.018,16.108
	c2.512,7.219,6.24,17.4,9.367,24.991c3.127,7.592,5.651,12.593,8.159,15.626s4.999,4.099,5.387,6.243
	c0.388,2.145-1.327,5.367-6.239,12.881c-4.913,7.514-13.025,19.318-17.271,27.833s-4.628,13.739-5.275,18.447
	c-0.647,4.709-1.56,8.9-5.284,11.379c-3.724,2.479-10.259,3.245-14.877,4.637c-4.619,1.392-7.322,3.409-14.202,3.383
	c-6.88-0.025-17.938-2.094-25.789-2.816c-7.852-0.722-12.496-0.098-15.849,1.836s-5.413,5.178-6.368,5.148
	c-0.956-0.03-0.806-3.333,0.101-7.029c0.906-3.695,2.569-7.782,6.546-10.88c3.976-3.099,10.266-5.208,17.258-5.712
	c6.993-0.504,14.688,0.598,18.774,0.788c4.085,0.189,4.563-0.533,4.145-1.722c-0.418-1.189-1.73-2.845-3.241-4.922
	c-1.512-2.077-3.221-4.576-6.298-5.997c-3.077-1.422-7.522-1.764-10.143-0.654c-2.622,1.109-3.42,3.674-3.841,3.136
	c-0.42-0.538-0.464-4.177,2.11-7.538s7.765-6.444,12.329-6.978c4.563-0.532,8.498,1.487,12.039,5.61
	c3.54,4.124,6.686,10.352,9.727,11.904s5.975-1.57,10.232-10.147c4.256-8.576,9.835-22.607,12.55-31.287
	c2.714-8.68,2.564-12.01-1.419-17.754c-3.984-5.744-11.803-13.903-20.477-20.82s-18.202-12.591-24.509-19.497
	c-6.308-6.906-9.394-15.045-6.494-23.107c2.21-6.145,6.418-10.2,12.66-18.963c2.469-3.466,3.794-4.67-0.34-6.039
	c-5.929-1.963-11.786-3.932-17.466-5.798c-2.457-0.808-4.88-1.596-7.263-2.368c-5.801-1.88-6.451-3.646-5.533,1.476
	c0.298,1.663,0.469,3.196,0.483,4.56c0.076,7.591-4.738,9.895-12.838,9.224c-8.101-0.67-19.487-4.313-26.547-6.895
	s-9.792-4.1-12.45-3.72c-2.657,0.38-5.237,2.657-5.465,7.135c-0.228,4.479,1.897,11.16,5.01,18.144
	c3.112,6.984,7.212,14.271,12.041,17.437c4.829,3.164,10.388,2.205,12.286-0.756c1.897-2.96,0.135-7.922,1.012-8.548
	c0.877-0.625,4.395,3.087,5.609,7.643c1.214,4.554,0.126,9.951-3.151,12.498c-3.277,2.547-8.743,2.243-14.208,0.194
	c-5.465-2.05-10.932-5.846-14.375-9.467s-4.867-7.068-4.912-5.545c-0.046,1.524,1.286,8.019,3.287,12.778
	c2.002,4.761,4.674,7.786,7.528,9.83s5.891,3.106,9.915,3.106c4.023,0,9.034-1.063,9.371-0.025c0.337,1.037-4,4.173-8.857,5.54
	c-4.858,1.366-10.239,0.963-15.283-1.062c-5.044-2.023-9.75-5.667-12.711-13.486c-2.96-7.819-4.175-19.813-5.693-29.378
	c-1.519-9.565-3.34-16.7-4.365-24.026c-1.025-7.325-1.253-14.841,0.373-19.318c1.625-4.478,5.103-5.917,9.999-4.057
	c4.896,1.859,11.211,7.019,16.874,9.371c5.662,2.352,10.672,1.896,12.495,1.365c1.821-0.531,0.455-1.139-3.342-3.777
	c-3.798-2.638-10.027-7.307-13.825-13.419c-3.797-6.111-5.164-13.666-5.299-19.127c-0.104-4.215,0.524-7.183,0.54-10.085
	c-0.812-3.199-1.977-6.186-3.87-8.677c-4.768-6.275-14.151-9.413-21.514-16.371c-7.364-6.958-12.707-17.735-17.644-26.478
	c-4.938-8.743-9.468-15.452-21.754-18.92c-12.286-3.468-32.327-3.696-45.28-4.754c-12.953-1.059-18.817-2.95-21.929-6.707
	C36.755,169.028,36.396,163.404,36.521,158.695z"/>
</svg>
